<svg width="18.000000" height="20.000000" viewBox="0 0 18 20" fill="none" xmlns="http://www.w3.org/2000/svg" xmlns:xlink="http://www.w3.org/1999/xlink">
	<desc>
			Created with Pixso.
	</desc>
	<path id="path" d="M9.26721 4.61537C10.2656 4.61537 11.5172 4.00504 12.2625 3.19135C12.9375 2.45392 13.4297 1.42403 13.4297 0.394135C13.4297 0.254288 13.4156 0.114426 13.3875 0C12.2766 0.0381012 10.9407 0.673843 10.139 1.52571C9.50629 2.17421 8.92969 3.19135 8.92969 4.2339C8.92969 4.38651 8.95782 4.53911 8.97186 4.58995C9.04218 4.60269 9.15472 4.61537 9.26721 4.61537ZM5.75153 20C7.1156 20 7.72034 19.1736 9.42188 19.1736C11.1516 19.1736 11.5312 19.9746 13.05 19.9746C14.5406 19.9746 15.5391 18.7286 16.4813 17.508C17.5359 16.1094 17.9719 14.7362 18 14.6726C17.9016 14.6472 15.0469 13.5919 15.0469 10.6294C15.0469 8.061 17.2968 6.90401 17.4234 6.81499C15.9329 4.8824 13.6687 4.83156 13.05 4.83156C11.3766 4.83156 10.0125 5.74693 9.15472 5.74693C8.22662 5.74693 7.00317 4.8824 5.55475 4.8824C2.79846 4.8824 0 6.94217 0 10.8328C0 13.2486 1.04065 15.8042 2.32031 17.4571C3.41718 18.8557 4.37347 20 5.75153 20Z" fill-rule="evenodd" fill="#FFFFFF"/>
	<defs/>
</svg>
