<svg width="18.000000" height="18.000000" viewBox="0 0 18 18" fill="none" xmlns="http://www.w3.org/2000/svg" xmlns:xlink="http://www.w3.org/1999/xlink">
	<desc>
			Created with Pixso.
	</desc>
	<path id="path" d="M17.64 9.20454C17.64 8.56636 17.5827 7.95273 17.4764 7.36363L9 7.36363L9 10.845L13.8436 10.845C13.635 11.97 13.0009 12.9232 12.0477 13.5614L12.0477 15.8195L14.9564 15.8195C16.6582 14.2527 17.64 11.9454 17.64 9.20454Z" fill-rule="evenodd" fill="#4285F4"/>
	<path id="path" d="M9 18C11.43 18 13.4673 17.1941 14.9564 15.8195L12.0477 13.5614C11.2418 14.1013 10.2109 14.4204 9 14.4204C6.65588 14.4204 4.67181 12.8373 3.96411 10.71L0.957275 10.71L0.957275 13.0418C2.43817 15.9832 5.48181 18 9 18Z" fill-rule="evenodd" fill="#34A853"/>
	<path id="path" d="M3.96411 10.71C3.78412 10.17 3.68182 9.59317 3.68182 9C3.68182 8.40681 3.78412 7.82999 3.96411 7.28999L3.96411 4.95818L0.957275 4.95818C0.347717 6.17317 0 7.54773 0 9C0 10.4523 0.347717 11.8268 0.957275 13.0418L3.96411 10.71Z" fill-rule="evenodd" fill="#FBBC05"/>
	<path id="path" d="M9 3.57954C10.3214 3.57954 11.5078 4.03363 12.4404 4.92546L15.0219 2.34409C13.4632 0.891815 11.4259 0 9 0C5.48181 0 2.43817 2.01682 0.957275 4.95818L3.96411 7.29001C4.67181 5.16272 6.65588 3.57954 9 3.57954Z" fill-rule="evenodd" fill="#EA4335"/>
	<defs/>
</svg>
