<svg width="19" height="33" viewBox="0 0 19 33" fill="none" xmlns="http://www.w3.org/2000/svg">
<g clip-path="url(#clip0_243_131)">
<path d="M9.09054 13.6825V11.1103H10.6049L7.77751 8.24884L4.95016 11.1103H6.54683V13.6848V15.7066V19.1162V23.2453C6.54683 24.3625 5.65242 25.267 4.54756 25.267C3.44269 25.267 2.54828 24.3625 2.54828 23.2453V19.1162V13.6825H0V23.243C0 25.0565 1.03853 26.6225 2.54599 27.372C3.14989 27.6727 3.82928 27.8416 4.54527 27.8416C5.26126 27.8416 5.94065 27.6727 6.54455 27.372C8.05201 26.6248 9.09054 25.0565 9.09054 23.243V13.6825Z" fill="#5982C8"/>
<path d="M14.4547 15.9818C13.7364 15.9818 13.0593 16.1507 12.4554 16.4514C10.948 17.1986 9.90944 18.7669 9.90944 20.5805V30.1409H8.34937L11.179 33.0023L14.0086 30.1409H12.4577V24.7072C13.0616 25.0079 13.741 25.1768 14.457 25.1768C16.9664 25.1768 19.0023 23.118 19.0023 20.5805C19 18.0406 16.9664 15.9818 14.4547 15.9818ZM14.4547 22.5999C13.3498 22.5999 12.4554 21.6954 12.4554 20.5782C12.4554 19.4609 13.3498 18.5564 14.4547 18.5564C15.5596 18.5564 16.454 19.4609 16.454 20.5782C16.454 21.6954 15.5596 22.5999 14.4547 22.5999Z" fill="#5982C8"/>
<path d="M9.85002 6.59722C9.99185 6.59953 10.136 6.60185 10.2778 6.60416C10.3441 6.60647 10.3967 6.54402 10.399 6.46768C10.4105 5.63956 10.4219 4.80912 10.431 3.981C10.431 3.90466 10.3716 3.84221 10.2938 3.84221C10.1291 3.84221 9.9644 3.84221 9.7997 3.84221C9.72421 3.84221 9.66245 3.90466 9.66473 3.981C9.68532 4.80681 9.70591 5.63262 9.7265 6.45843C9.72878 6.53245 9.78369 6.59491 9.85002 6.59722Z" fill="#5982C8"/>
<path d="M10.0421 3.18758C10.2617 3.18758 10.4424 3.01409 10.4447 2.80128C10.4493 2.58847 10.2663 2.41498 10.0376 2.41729C9.80881 2.4196 9.62809 2.59309 9.63495 2.80591C9.64182 3.01641 9.82482 3.18758 10.0421 3.18758Z" fill="#5982C8"/>
<path d="M11.5496 6.64117C11.4444 6.63655 11.3392 6.63424 11.2316 6.62961C11.1127 6.62498 11.0235 6.51164 11.0281 6.37284C11.1264 4.33261 11.2248 2.29237 11.3231 0.252138C11.3323 0.113346 11.4695 0 11.632 0C11.7784 0 11.9225 0 12.0689 0C12.2313 0 12.3548 0.113346 12.3411 0.252138C12.1558 2.30163 11.9728 4.35111 11.7875 6.39829C11.7738 6.53708 11.6686 6.6458 11.5496 6.64117Z" fill="#5982C8"/>
<path d="M7.12329 2.95626C7.08669 2.95857 7.05466 2.93082 7.0478 2.89843C7.01578 2.68562 6.98604 2.47512 6.95401 2.2623C6.95173 2.25536 6.94944 2.24842 6.94715 2.23917C6.86709 1.73027 7.30171 1.29308 7.91705 1.26994C8.01999 1.26532 8.12064 1.27688 8.21672 1.2977C8.26018 1.30695 8.29907 1.2792 8.30135 1.24219C8.31279 0.885954 8.32423 0.529722 8.33795 0.171177C8.34024 0.138793 8.3105 0.111034 8.27162 0.106408C8.11835 0.0902157 7.95823 0.0809629 7.7981 0.0879025C7.37949 0.106408 6.9929 0.201249 6.66579 0.358546C5.84 0.747162 5.41452 1.49432 5.59524 2.31088C5.64099 2.52832 5.68674 2.74576 5.73249 2.9632C5.73935 2.9979 5.71647 3.02566 5.67987 3.02797C5.37792 3.04416 5.07597 3.06498 4.77402 3.08349C4.73742 3.0858 4.71455 3.11587 4.7237 3.14826C4.81748 3.50449 4.91127 3.86303 5.00735 4.21926C5.0165 4.25165 5.05081 4.27709 5.08512 4.27478C5.36877 4.25859 5.65471 4.2424 5.93836 4.22852C5.97267 4.2262 6.0047 4.25165 6.01385 4.28635C6.17626 5.04739 6.33639 5.80611 6.4988 6.56715C6.50566 6.59954 6.5354 6.6273 6.56514 6.62498C6.88996 6.61573 7.2125 6.60648 7.53733 6.60185C7.56707 6.60185 7.58765 6.57409 7.58308 6.5394C7.4687 5.77142 7.35661 5.00344 7.24224 4.23546C7.23766 4.20076 7.26054 4.173 7.29485 4.173C7.90104 4.15218 8.50952 4.14062 9.1157 4.13368C9.15002 4.13368 9.17518 4.10592 9.17518 4.07122C9.15688 3.70342 9.13858 3.33331 9.12028 2.96551C9.11799 2.93082 9.08825 2.90306 9.05165 2.90537C8.41115 2.91231 7.76608 2.93082 7.12329 2.95626Z" fill="#5982C8"/>
<path d="M13.4826 6.14384C13.1143 6.12071 12.8398 5.86857 12.8123 5.55398C12.8146 5.55398 12.8146 5.55398 12.8169 5.55398C12.81 5.50309 12.81 5.4522 12.8169 5.39899C12.8215 5.3643 12.8306 5.3296 12.8421 5.29721C13.5718 5.3296 14.3038 5.37124 15.0335 5.42444C15.0472 5.38512 15.0587 5.34579 15.0678 5.30647C15.2966 4.44596 14.7567 3.70574 13.876 3.71499C13.1074 3.72193 12.4212 4.32336 12.3091 5.07515C12.1833 5.93334 12.6957 6.67125 13.4094 6.71983C13.9973 6.75915 14.608 6.31733 14.926 5.67889C14.7315 5.66501 14.5394 5.65113 14.345 5.63725C14.21 5.95185 13.8531 6.16697 13.4826 6.14384ZM13.8417 4.24703C14.2557 4.26553 14.5302 4.57781 14.4936 4.95486C13.979 4.92248 13.4643 4.89703 12.9496 4.8739C13.0479 4.50379 13.4277 4.22621 13.8417 4.24703Z" fill="#5982C8"/>
</g>
<defs>
<clipPath id="clip0_243_131">
<rect width="19" height="33" fill="white"/>
</clipPath>
</defs>
</svg>
