<svg width="19.000000" height="33.000000" viewBox="0 0 19 33" fill="none" xmlns="http://www.w3.org/2000/svg" xmlns:xlink="http://www.w3.org/1999/xlink">
	<desc>
			Created with Pixso.
	</desc>
	<g clip-path="url(#clip243_131)">
		<path d="M9.09052 13.6825L9.09052 11.1103L10.6049 11.1103L7.77753 8.24884L4.95013 11.1103L6.54681 11.1103L6.54681 13.6848L6.54681 15.7066L6.54681 19.1162L6.54681 23.2453C6.54681 24.3625 5.6524 25.267 4.54755 25.267C3.44269 25.267 2.54828 24.3625 2.54828 23.2453L2.54828 19.1162L2.54828 13.6825L0 13.6825L0 23.243C0 25.0565 1.03851 26.6225 2.54602 27.372C3.1499 27.6727 3.82928 27.8416 4.54529 27.8416C5.26123 27.8416 5.94067 27.6727 6.54456 27.372C8.052 26.6248 9.09052 25.0565 9.09052 23.243L9.09052 13.6825Z" fill-rule="nonzero" fill="#5982C8"/>
		<path d="M14.4547 15.9818C13.7365 15.9818 13.0593 16.1507 12.4554 16.4514C10.948 17.1986 9.90942 18.7669 9.90942 20.5805L9.90942 30.1409L8.34937 30.1409L11.179 33.0023L14.0087 30.1409L12.4577 30.1409L12.4577 24.7072C13.0616 25.0079 13.741 25.1768 14.457 25.1768C16.9664 25.1768 19.0023 23.118 19.0023 20.5805C19 18.0406 16.9664 15.9818 14.4547 15.9818ZM14.4547 22.5999C13.3499 22.5999 12.4554 21.6954 12.4554 20.5782C12.4554 19.4609 13.3499 18.5564 14.4547 18.5564C15.5596 18.5564 16.454 19.4609 16.454 20.5782C16.454 21.6954 15.5596 22.5999 14.4547 22.5999Z" fill-rule="nonzero" fill="#5982C8"/>
		<path d="M9.85004 6.59723C9.99182 6.59955 10.136 6.60187 10.2778 6.60419C10.3441 6.60648 10.3967 6.54404 10.399 6.46768C10.4105 5.63959 10.4219 4.80914 10.431 3.98102C10.431 3.90469 10.3716 3.84222 10.2938 3.84222C10.1291 3.84222 9.96442 3.84222 9.79968 3.84222C9.72418 3.84222 9.66248 3.90469 9.66473 3.98102C9.6853 4.80682 9.70593 5.63263 9.7265 6.45844C9.72876 6.53247 9.78369 6.59491 9.85004 6.59723Z" fill-rule="nonzero" fill="#5982C8"/>
		<path d="M10.0421 3.18759C10.2617 3.18759 10.4424 3.0141 10.4447 2.80127C10.4493 2.58847 10.2663 2.41498 10.0375 2.4173C9.80878 2.41962 9.62811 2.59308 9.63495 2.80591C9.64185 3.01642 9.82483 3.18759 10.0421 3.18759Z" fill-rule="nonzero" fill="#5982C8"/>
		<path d="M11.5496 6.64117C11.4444 6.63654 11.3392 6.63425 11.2316 6.62961C11.1127 6.62497 11.0235 6.51163 11.0281 6.37283C11.1264 4.33261 11.2248 2.29236 11.3231 0.252136C11.3323 0.113342 11.4695 0 11.632 0C11.7784 0 11.9225 0 12.0688 0C12.2313 0 12.3548 0.113342 12.3411 0.252136C12.1558 2.30164 11.9728 4.3511 11.7875 6.39828C11.7738 6.53708 11.6686 6.64581 11.5496 6.64117Z" fill-rule="nonzero" fill="#5982C8"/>
		<path d="M7.12329 2.95627C7.08667 2.95859 7.05469 2.93082 7.04779 2.89844C7.01575 2.68561 6.98602 2.47513 6.95404 2.2623C6.95172 2.25537 6.94946 2.24841 6.94714 2.23917C6.86707 1.73026 7.3017 1.29309 7.91705 1.26996C8.02002 1.26532 8.12067 1.27689 8.21674 1.2977C8.26019 1.30695 8.29907 1.27921 8.30133 1.24219C8.31281 0.885956 8.32422 0.529724 8.33795 0.171173C8.34027 0.138794 8.31049 0.111023 8.27161 0.106415C8.11835 0.09021 7.95825 0.0809631 7.7981 0.0878906C7.37952 0.106415 6.99292 0.201263 6.66577 0.358551C5.84003 0.747162 5.41455 1.49432 5.59521 2.31088C5.64099 2.52832 5.68671 2.74576 5.73248 2.9632C5.73932 2.99789 5.71649 3.02567 5.67987 3.02798C5.37793 3.04416 5.07599 3.06497 4.77405 3.0835C4.73743 3.08578 4.71454 3.11588 4.72369 3.14825C4.8175 3.50449 4.91125 3.86304 5.00732 4.21927C5.01648 4.25165 5.05078 4.2771 5.08514 4.27478C5.36877 4.25858 5.65472 4.2424 5.93835 4.22852C5.97266 4.2262 6.0047 4.25165 6.01385 4.28635C6.17627 5.04739 6.33636 5.80612 6.49878 6.56714C6.50568 6.59955 6.5354 6.62729 6.56512 6.62497C6.88995 6.61572 7.21252 6.60648 7.53735 6.60184C7.56708 6.60184 7.58765 6.5741 7.58307 6.5394C7.46869 5.77142 7.35663 5.00345 7.24225 4.23544C7.23767 4.20074 7.26056 4.173 7.29486 4.173C7.90106 4.15219 8.50952 4.14062 9.11572 4.13367C9.15002 4.13367 9.17517 4.10593 9.17517 4.07123C9.15686 3.70343 9.13855 3.33331 9.1203 2.96552C9.11798 2.93082 9.08826 2.90305 9.05164 2.90536C8.41113 2.91232 7.76605 2.93082 7.12329 2.95627Z" fill-rule="nonzero" fill="#5982C8"/>
		<path d="M13.4825 6.14383C13.1143 6.1207 12.8398 5.86856 12.8123 5.55399C12.8146 5.55399 12.8146 5.55399 12.8169 5.55399C12.8101 5.50308 12.8101 5.45221 12.8169 5.39899C12.8215 5.36429 12.8306 5.32959 12.842 5.29721C13.5718 5.32959 14.3038 5.37125 15.0335 5.42444C15.0472 5.3851 15.0587 5.34579 15.0678 5.30646C15.2966 4.44595 14.7567 3.70575 13.876 3.715C13.1074 3.72192 12.4211 4.32336 12.3091 5.07513C12.1833 5.93335 12.6957 6.67126 13.4094 6.71982C13.9973 6.75916 14.608 6.31732 14.926 5.67889C14.7316 5.66501 14.5394 5.65112 14.345 5.63727C14.21 5.95184 13.8531 6.16696 13.4825 6.14383ZM13.8417 4.24704C14.2557 4.26553 14.5303 4.57782 14.4937 4.95486C13.9789 4.92249 13.4643 4.89703 12.9496 4.8739C13.048 4.50378 13.4277 4.2262 13.8417 4.24704Z" fill-rule="nonzero" fill="#5982C8"/>
	</g>
	<defs>
		<clipPath id="clip243_131">
			<rect width="19.000000" height="33.000000" fill="white"/>
		</clipPath>
	</defs>
</svg>
