<svg width="497" height="478" viewBox="0 0 497 478" fill="none" xmlns="http://www.w3.org/2000/svg">
<g clip-path="url(#clip0_1497_106)">
<path d="M408.875 220.209C315.403 175.794 171.027 187.38 86.4121 246.087C1.79709 304.794 8.97621 388.377 102.399 432.797C195.821 477.216 340.256 465.615 424.872 406.918C509.488 348.221 502.357 264.614 408.875 220.209Z" fill="#F5F5F5"/>
<path d="M108.07 299.947C136.227 280.532 183.944 276.703 214.637 291.395C241.763 304.377 246.515 327.471 227.843 346.064C243.931 343.77 260.904 345.507 273.86 351.691C296.552 362.55 298.071 382.984 277.272 397.324C256.472 411.664 221.206 414.504 198.525 403.644C180.48 395.06 175.836 380.314 185.166 367.436C160.604 373.029 132.945 371.396 112.685 361.706C81.9415 347.018 79.8736 319.375 108.07 299.947Z" fill="#E0E0E0"/>
<path d="M401.667 320.026L273.461 258.584C273.09 258.415 272.771 258.15 272.537 257.816C272.304 257.482 272.163 257.091 272.13 256.685C272.098 256.278 272.174 255.871 272.352 255.504C272.53 255.137 272.802 254.824 273.141 254.597L316.551 224.478C316.883 224.249 317.27 224.111 317.673 224.079C318.075 224.047 318.479 224.121 318.844 224.294L448.219 286.314C448.59 286.483 448.909 286.749 449.143 287.083C449.377 287.417 449.518 287.807 449.55 288.213C449.583 288.62 449.506 289.028 449.329 289.395C449.151 289.762 448.878 290.075 448.539 290.301L406.222 319.66C405.561 320.115 404.793 320.388 403.993 320.452C403.194 320.516 402.392 320.369 401.667 320.026V320.026Z" fill="#E0E0E0"/>
<path d="M427.796 346.22C420.193 342.616 408.461 343.558 401.58 348.323C394.699 353.089 395.283 359.864 402.888 363.497C410.493 367.131 422.224 366.169 429.094 361.394C435.964 356.619 435.399 349.833 427.796 346.22Z" fill="#E0E0E0"/>
<path d="M103.62 81.3526L105.801 107.532L109.119 109.122L106.643 79.2741L103.62 81.3526Z" fill="#F0F0F0"/>
<path d="M73.1188 130.069L73.4331 133.735L109.119 109.122L105.801 107.532L73.1188 130.069Z" fill="#F5F5F5"/>
<path d="M109.933 72.3889L66.924 102.004L70.1366 140.661L113.142 111.006L109.933 72.3889ZM73.4331 133.735L73.1387 130.067L70.9675 103.887L103.64 81.351L106.663 79.2725L109.142 109.17L73.4331 133.735Z" fill="#E0E0E0"/>
<path d="M109.93 72.349L106.612 70.7593L63.6062 100.415L66.924 102.004L109.93 72.349Z" fill="#F5F5F5"/>
<path d="M63.6062 100.414L66.8188 139.071L70.1366 140.661L66.924 102.004L63.6062 100.414Z" fill="#F0F0F0"/>
<path d="M108.316 140.125L110.497 166.305L113.815 167.894L111.33 138.048L108.316 140.125Z" fill="#F0F0F0"/>
<path d="M77.8153 188.841L78.1196 192.509L113.815 167.894L110.497 166.305L77.8153 188.841Z" fill="#F5F5F5"/>
<path d="M114.586 131.125L71.6173 160.737L74.8299 199.394L117.835 169.739L114.586 131.125ZM78.0798 192.512L77.7854 188.844L75.6134 162.653L108.286 140.128L111.3 138.05L113.785 167.897L78.0798 192.512Z" fill="#E0E0E0"/>
<path d="M114.626 131.122L111.308 129.532L68.2927 159.188L71.6205 160.777L114.626 131.122Z" fill="#F5F5F5"/>
<path d="M68.2927 159.188L71.5053 197.845L74.8331 199.434L71.6205 160.777L68.2927 159.188Z" fill="#F0F0F0"/>
<path d="M172.869 102.822L172.359 96.4624L172.082 96.6451L171.58 97.0065C167.112 100.214 162.755 105.058 158.746 110.225C158.082 111.081 157.429 111.946 156.786 112.81C153.429 117.354 150.171 122.13 146.782 126.655L147.607 136.932L151.885 133.99C156.824 122.356 163.948 111.776 172.869 102.822V102.822Z" fill="#EBEBEB"/>
<path d="M174.184 118.587L173.502 110.085C169.935 114.534 167.098 119.523 165.097 124.864L174.184 118.587Z" fill="#EBEBEB"/>
<path d="M165.067 124.867C167.068 119.526 169.905 114.537 173.472 110.087L172.889 102.82C163.981 111.767 156.867 122.336 151.932 133.957L165.108 124.873L165.067 124.867Z" fill="#FAFAFA"/>
<path d="M153.286 95.5752L153.916 95.2939C155.078 94.7693 156.253 94.1633 157.434 93.5067L157.855 93.2522C158.249 93.0301 158.651 92.7971 159.043 92.555C159.721 92.1294 160.4 91.7038 161.084 91.2375C160.4 91.7038 159.721 92.1294 159.043 92.555L159.292 92.4046C159.884 92.036 160.485 91.6467 161.086 91.2574L161.466 90.9962L161.78 90.7804C165.007 88.4994 168.031 85.9441 170.818 83.1429L171.208 82.7505L170.346 72.005C163.808 76.0409 157.186 77.6658 151.639 76.4156C147.826 75.5124 144.452 73.2974 142.107 70.158L144.427 98.0618C147.481 97.6465 150.462 96.8097 153.286 95.5752V95.5752Z" fill="#FAFAFA"/>
<path d="M158.726 110.227C162.735 105.06 167.092 100.216 171.56 97.0081L172.062 96.6467L172.339 96.464L171.844 90.3038C163.171 96.3938 155.25 103.492 148.25 111.449C147.413 112.389 146.577 113.349 145.738 114.269L146.73 126.639C150.122 122.144 153.38 117.368 156.735 112.795C157.409 111.948 158.062 111.083 158.726 110.227Z" fill="#FAFAFA"/>
<path d="M171.834 90.3046L171.226 82.729L170.837 83.1214C168.049 85.9226 165.025 88.4779 161.798 90.7589L161.485 90.9747L161.104 91.2359C160.505 91.6452 159.904 92.0345 159.31 92.3831L159.062 92.5335C159.005 92.5642 158.951 92.5987 158.899 92.6368V92.6368C158.951 92.5987 159.005 92.5642 159.062 92.5335C158.669 92.7656 158.277 93.0078 157.884 93.2299L157.443 93.486C156.271 94.1418 155.096 94.7478 153.934 95.2724L154.592 94.9688L153.934 95.2724L153.305 95.5537C150.47 96.7995 147.475 97.6443 144.407 98.0635L145.755 114.237C146.594 113.317 147.43 112.357 148.268 111.417C155.261 103.473 163.172 96.3862 171.834 90.3046V90.3046Z" fill="#EBEBEB"/>
<path d="M169.587 63.2978L168.947 55.3235C164.561 54.6723 160.959 51.7912 158.827 47.237L149.74 53.5041C151.691 56.9328 154.624 59.6983 158.162 61.444C161.699 63.1897 165.679 63.8354 169.587 63.2978V63.2978Z" fill="#FAFAFA"/>
<path d="M151.597 76.3989C157.145 77.6491 163.766 76.0242 170.304 71.9883L169.607 63.2962C165.702 63.8361 161.725 63.1946 158.189 61.4544C154.652 59.7143 151.717 56.9551 149.762 53.5324L141.206 59.4257L142.068 70.1612C144.415 73.2928 147.788 75.5005 151.597 76.3989V76.3989Z" fill="#EBEBEB"/>
<path d="M169.094 38.2771L139.533 58.7072L146.27 139.778L175.83 119.348L169.094 38.2771ZM147.614 136.901L146.789 126.624L145.797 114.254L144.449 98.0802L142.129 70.1763L141.268 59.4408L149.823 53.5475L158.911 47.2805L167.847 41.1159L168.991 55.3701L169.631 63.3445L170.328 72.0365L171.191 82.782L171.798 90.3576L172.29 96.478L172.8 102.838L173.383 110.104L174.065 118.607L164.949 124.886L151.773 133.969L147.614 136.901Z" fill="white"/>
<path d="M168.929 55.355L167.785 41.1008L158.85 47.2653C160.941 51.8226 164.542 54.6938 168.929 55.355Z" fill="#EBEBEB"/>
<path d="M175.83 119.348L146.267 139.738L146.44 141.891L177.772 120.286L175.83 119.348Z" fill="#CACACA"/>
<path d="M169.084 38.2779L175.83 119.348L177.772 120.286L170.862 37.0617L169.084 38.2779Z" fill="#F0F0F0"/>
<path d="M175.153 28.0295L134.277 56.2097L142.145 150.884L183.022 122.703L175.153 28.0295ZM146.439 141.891L146.264 139.698L139.527 58.6275L169.087 38.1974L170.856 36.982L177.765 120.206L146.439 141.891Z" fill="#E0E0E0"/>
<path d="M175.153 28.0295L171.462 26.4096L130.595 54.589L134.277 56.2097L175.153 28.0295Z" fill="#F5F5F5"/>
<path d="M130.595 54.589L138.468 149.313L142.148 150.924L134.277 56.2097L130.595 54.589Z" fill="#F0F0F0"/>
<path d="M93.5329 92.1742L103.472 98.7702L104.07 105.965L74.4297 126.402L73.833 119.217L78.8093 106.969L84.4641 110.679L83.0489 116.671L85.3634 111.259L93.5329 92.1742Z" fill="#E0E0E0"/>
<path d="M83.6129 96.5718C85.0102 95.6069 86.2508 96.1896 86.396 97.8733C86.4197 98.7939 86.2261 99.707 85.831 100.539C85.4358 101.371 84.8502 102.097 84.1216 102.661C82.7235 103.616 81.483 103.033 81.3386 101.359C81.3141 100.438 81.5073 99.525 81.9025 98.6931C82.2977 97.8612 82.8838 97.1344 83.6129 96.5718V96.5718Z" fill="#E0E0E0"/>
<path d="M98.2286 150.937L108.16 157.554L108.756 164.739L79.1262 185.175L78.5295 177.989L83.5057 165.742L89.1506 169.452L87.7454 175.444L90.0499 170.032L98.2286 150.937Z" fill="#E0E0E0"/>
<path d="M88.3126 155.384C89.7099 154.419 90.9505 155.002 91.0856 156.687C91.1112 157.606 90.9195 158.519 90.526 159.351C90.1326 160.182 89.5485 160.91 88.8213 161.473C87.4232 162.428 86.1726 161.846 86.0382 160.172C86.0113 159.251 86.2035 158.336 86.5989 157.504C86.9942 156.672 87.5816 155.945 88.3126 155.384Z" fill="#E0E0E0"/>
<path d="M287.236 255.723L282.932 258.717L282.522 253.483L287.236 255.723Z" fill="#E6E6E6"/>
<path d="M278.632 202.752L393.907 257.456L278.632 202.752Z" fill="#CFCFCF"/>
<path d="M287.237 255.723L397.882 308.241L398.301 313.464L403.225 315.808L398.464 254.362L273.309 194.933L278.059 256.37L282.992 258.712L282.572 253.479L287.237 255.723ZM395.456 277.386L280.18 222.672L278.63 202.732L393.905 257.436L395.456 277.386ZM397.412 302.761L282.137 248.057L280.602 228.186L280.598 228.126L395.874 282.84L397.412 302.761Z" fill="#EBEBEB"/>
<path d="M282.147 248.056L280.602 228.186L280.598 228.126L395.874 282.84L397.412 302.761L282.147 248.056Z" fill="#F5F5F5"/>
<path d="M280.18 222.672L278.632 202.752L393.907 257.456L395.456 277.386L280.18 222.672Z" fill="#F5F5F5"/>
<path d="M398.454 254.362L442.957 223.493L447.708 284.94L403.215 315.808L398.454 254.362Z" fill="#E6E6E6"/>
<path d="M398.454 254.362L273.249 194.937L317.743 164.069L442.957 223.493L398.454 254.362Z" fill="#F5F5F5"/>
<path d="M344.467 241.309L344.754 244.888C344.898 246.682 343.681 247.512 342.043 246.73L327.869 240.003C327.006 239.534 326.265 238.867 325.709 238.057C325.152 237.248 324.795 236.318 324.666 235.344L324.377 231.745L344.467 241.309Z" fill="#EBEBEB"/>
<path d="M344.197 237.95L344.457 241.31L324.379 231.765L324.119 228.405L344.197 237.95Z" fill="#E0E0E0"/>
<g opacity="0.1">
<path opacity="0.1" d="M344.197 237.95L344.457 241.31L324.379 231.765L324.119 228.405L344.197 237.95Z" fill="black"/>
</g>
<path d="M346.52 266.897L346.807 270.465C346.951 272.27 345.733 273.09 344.096 272.318L329.923 265.59C329.06 265.121 328.32 264.454 327.763 263.645C327.207 262.835 326.849 261.905 326.72 260.932L326.432 257.353L346.52 266.897Z" fill="#EBEBEB"/>
<path d="M346.251 263.538L346.51 266.898L326.433 257.353L326.173 253.993L346.251 263.538Z" fill="#E0E0E0"/>
<g opacity="0.1">
<path opacity="0.1" d="M346.251 263.538L346.51 266.898L326.433 257.353L326.173 253.993L346.251 263.538Z" fill="black"/>
</g>
<path d="M430.386 321.734L412.844 323.663L395.229 324.555C395.424 336.488 398.708 348.403 402.383 354.078C403.264 355.533 404.58 356.673 406.146 357.337C411.579 359.911 419.962 359.238 424.876 355.834C426.338 354.916 427.458 353.543 428.063 351.926C430.765 345.71 432.089 333.455 430.386 321.734Z" fill="white"/>
<path d="M424.618 314.994C431.836 318.427 432.382 324.864 425.864 329.39C419.345 333.916 408.241 334.817 400.994 331.386C393.746 327.955 393.24 321.525 399.758 316.989C406.276 312.453 417.41 311.559 424.618 314.994Z" fill="#EBEBEB"/>
<path d="M422.021 316.757C427.642 319.426 428.076 324.457 422.992 327.985C417.908 331.513 409.216 332.211 403.594 329.542C397.973 326.873 397.539 321.842 402.623 318.314C407.707 314.786 416.398 314.078 422.021 316.757Z" fill="#E0E0E0"/>
<g opacity="0.15">
<path opacity="0.15" d="M422.021 316.757C427.642 319.426 428.076 324.457 422.992 327.985C417.908 331.513 409.216 332.211 403.594 329.542C397.973 326.873 397.539 321.842 402.623 318.314C407.707 314.786 416.398 314.078 422.021 316.757Z" fill="black"/>
</g>
<path d="M435.689 245.806C397.116 261.944 398.886 288.497 409.332 306.65C411.891 310.287 418.874 311.793 422.921 287.842L412.621 290.013L424.251 282.92L426.646 273.258L416.598 274.816L429.004 268.393C430.765 260.734 432.998 253.191 435.689 245.806V245.806Z" fill="#5982C8"/>
<path opacity="0.2" d="M435.689 245.806C397.116 261.944 398.886 288.497 409.332 306.65C411.891 310.287 418.874 311.793 422.921 287.842L412.621 290.013L424.251 282.92L426.646 273.258L416.598 274.816L429.004 268.393C430.765 260.734 432.998 253.191 435.689 245.806V245.806Z" fill="black"/>
<path opacity="0.2" d="M435.689 245.806C397.116 261.944 398.886 288.497 409.332 306.65C411.891 310.287 418.874 311.793 422.921 287.842L412.621 290.013L424.251 282.92L426.646 273.258L416.598 274.816L429.004 268.393C430.765 260.734 432.998 253.191 435.689 245.806V245.806Z" fill="white"/>
<path d="M425.017 253.334C405.357 270.873 404.972 289.203 412.396 307.708C408.962 291.17 405.349 274.405 425.017 253.334Z" fill="white"/>
<path d="M370.745 278.115C410.241 280.483 416.952 304.724 413.299 324.209C412.159 328.253 406.393 331.785 395.287 311.659L405.166 310.375L392.598 307.652L387.441 299.769L396.9 298.007L383.774 296.201C379.807 289.91 375.456 283.87 370.745 278.115V278.115Z" fill="#5982C8"/>
<path opacity="0.2" d="M370.745 278.115C410.241 280.483 416.952 304.724 413.299 324.209C412.159 328.253 406.393 331.785 395.287 311.659L405.166 310.375L392.598 307.652L387.441 299.769L396.9 298.007L383.774 296.201C379.807 289.91 375.456 283.87 370.745 278.115V278.115Z" fill="white"/>
<path opacity="0.1" d="M370.745 278.115C410.241 280.483 416.952 304.724 413.299 324.209C412.159 328.253 406.393 331.785 395.287 311.659L405.166 310.375L392.598 307.652L387.441 299.769L396.9 298.007L383.774 296.201C379.807 289.91 375.456 283.87 370.745 278.115V278.115Z" fill="black"/>
<path d="M382.635 281.505C405.63 291.026 411.738 307.259 410.893 326.107C408.787 310.245 406.788 294.203 382.635 281.505Z" fill="white"/>
<path d="M450.024 281.043C414.256 284.505 408.947 306.731 412.934 324.288C414.109 327.926 419.487 330.935 428.867 312.305L419.86 311.463L431.213 308.545L435.641 301.218L426.989 299.906L438.807 297.784C442.201 291.98 445.946 286.389 450.024 281.043V281.043Z" fill="#5982C8"/>
<path d="M439.347 284.508C418.794 293.922 413.783 308.861 415.183 325.934C416.571 311.476 417.815 296.85 439.347 284.508Z" fill="white"/>
<path opacity="0.2" d="M450.024 281.043C414.256 284.505 408.947 306.731 412.934 324.288C414.109 327.926 419.487 330.935 428.867 312.305L419.86 311.463L431.213 308.545L435.641 301.218L426.989 299.906L438.807 297.784C442.201 291.98 445.946 286.389 450.024 281.043V281.043Z" fill="white"/>
<path d="M311.341 7.16861L304.732 4.06737L315.414 142.175L315.434 142.184L368.684 167.174L368.124 159.946L358.002 29.0662L311.341 7.16861Z" fill="#F0F0F0"/>
<path opacity="0.1" d="M321.463 138.048L311.341 7.16861L304.732 4.06737L315.414 142.175L315.434 142.184L321.484 138.057L321.463 138.048Z" fill="black"/>
<path opacity="0.2" d="M368.124 159.946L321.484 138.057L315.434 142.184L368.684 167.174L368.124 159.946Z" fill="black"/>
<path d="M384.21 41.3592L377.6 38.2579L388.282 176.366L388.303 176.374L441.553 201.365L440.993 194.136L430.871 63.2568L384.21 41.3592Z" fill="#F0F0F0"/>
<path opacity="0.1" d="M394.331 172.239L384.21 41.3592L377.6 38.2579L388.282 176.366L388.303 176.374L394.352 172.247L394.331 172.239Z" fill="black"/>
<path opacity="0.2" d="M440.993 194.137L394.352 172.247L388.303 176.374L441.553 201.365L440.993 194.137Z" fill="black"/>
<path d="M195.62 233.812C206.248 239.981 217.981 243.926 227.146 252.63C244.251 268.874 246.88 297.014 236.157 318.029C225.433 339.044 203.454 352.927 180.309 357.553C156.03 362.411 129.769 357.696 109.299 343.769C88.8296 329.842 74.6599 306.661 72.6892 281.98C70.7186 257.298 81.3861 231.713 100.977 216.567C118.85 202.753 145.661 197.07 165.71 209.627C175.85 215.976 183.072 225.96 193.184 232.332C193.978 232.85 194.799 233.336 195.62 233.812Z" fill="#5982C8"/>
<path opacity="0.2" d="M195.62 233.812C206.248 239.981 217.981 243.926 227.146 252.63C244.251 268.874 246.88 297.014 236.157 318.029C225.433 339.044 203.454 352.927 180.309 357.553C156.03 362.411 129.769 357.696 109.299 343.769C88.8296 329.842 74.6599 306.661 72.6892 281.98C70.7186 257.298 81.3861 231.713 100.977 216.567C118.85 202.753 145.661 197.07 165.71 209.627C175.85 215.976 183.072 225.96 193.184 232.332C193.978 232.85 194.799 233.336 195.62 233.812Z" fill="black"/>
<path opacity="0.1" d="M195.62 233.812C206.248 239.981 217.981 243.926 227.146 252.63C244.251 268.874 246.88 297.014 236.157 318.029C225.433 339.044 203.454 352.927 180.309 357.553C156.03 362.411 129.769 357.696 109.299 343.769C88.8296 329.842 74.6599 306.661 72.6892 281.98C70.7186 257.298 81.3861 231.713 100.977 216.567C118.85 202.753 145.661 197.07 165.71 209.627C175.85 215.976 183.072 225.96 193.184 232.332C193.978 232.85 194.799 233.336 195.62 233.812Z" fill="white"/>
<path d="M85.5758 277.545C84.5206 260.479 89.55 243.593 99.7702 229.886C109.99 216.178 124.739 206.539 141.396 202.68C143.764 202.723 146.126 202.925 148.467 203.286C130.821 205.649 114.723 214.607 103.413 228.357C92.1019 242.107 86.4168 259.629 87.5004 277.4C88.8817 300.363 101.998 322.916 122.57 337.618C138.693 349.135 159.436 355.968 181.728 357.229L180.328 357.531C178.353 357.924 176.373 358.254 174.388 358.52C154.485 356.285 136.104 349.634 121.45 339.162C100.412 324.157 87.0051 301.106 85.5758 277.545Z" fill="white"/>
<path opacity="0.1" d="M199.756 336.731C199.743 336.561 199.73 336.402 199.646 336.238C198.381 330.839 195.459 325.971 191.289 322.315C187.118 318.66 181.91 316.4 176.391 315.853C166.525 314.769 156.929 311.949 148.044 307.524C141.771 304.365 135.702 300.368 128.795 298.936C122.083 297.582 115.11 298.552 109.022 301.687C114.204 295.251 123.715 291.88 131.696 293.948C125.663 286.156 120.217 277.674 117.589 268.174C114.96 258.674 115.426 247.972 120.612 239.59C122.823 236.016 125.798 232.977 129.324 230.691C132.85 228.405 136.839 226.929 141.004 226.369C145.169 225.809 149.406 226.18 153.411 227.454C157.415 228.728 161.088 230.874 164.163 233.738C170.431 239.585 174.353 248.199 178.785 255.548C181.948 260.832 185.21 266.228 189.982 270.069C197.248 275.846 207.15 277.349 214.653 282.836C223.177 289.054 227.456 299.746 228.339 310.249C228.771 317.34 228.301 324.457 226.939 331.429C219.347 339.928 210.026 346.706 199.602 351.31C200.805 346.531 200.858 341.534 199.756 336.731V336.731Z" fill="black"/>
<path d="M224.809 327.015C224.14 331.182 224.503 338.577 224.503 338.577L221.702 337.799C220.374 337.41 218.96 337.425 217.64 337.84C216.32 338.254 215.152 339.051 214.285 340.129L214.166 340.279C213.718 340.827 213.076 341.182 212.374 341.27C211.671 341.358 210.962 341.173 210.392 340.753C210.088 340.526 209.834 340.238 209.647 339.907C209.46 339.577 209.343 339.211 209.305 338.834L208.007 327.29L224.809 327.015Z" fill="#FFA8A7"/>
<path d="M217.763 370.85C223.889 376.427 234.7 380.877 241.832 375.118L241.139 377.11C234.006 382.859 223.186 378.42 217.07 372.841C210.954 367.263 214.257 362.784 208.763 357.838C206.701 356.154 205.023 354.048 203.844 351.662C204.027 351.075 204.186 350.3 204.376 349.422C205.678 351.846 207.398 354.021 209.456 355.846C214.96 360.792 211.627 365.263 217.763 370.85Z" fill="#F5F5F5"/>
<path d="M206.651 342.889C207.423 341.585 207.915 340.134 208.095 338.63C208.121 338.282 208.223 337.944 208.392 337.64C208.562 337.335 208.795 337.071 209.077 336.866L209.303 338.804C209.341 339.182 209.457 339.547 209.644 339.878C209.832 340.208 210.085 340.496 210.39 340.723C210.959 341.143 211.669 341.328 212.371 341.24C213.074 341.152 213.716 340.797 214.164 340.25L214.282 340.1C215.15 339.021 216.317 338.225 217.638 337.81C218.958 337.395 220.371 337.381 221.7 337.769L224.533 338.575C224.951 338.693 225.323 338.938 225.597 339.274C225.872 339.611 226.037 340.024 226.069 340.458C226.524 348.377 231.066 358.596 235.406 364.057C239.526 365.391 243.401 370.548 241.966 374.666L241.819 375.079C234.686 380.838 223.866 376.389 217.75 370.811C211.634 365.232 214.937 360.753 209.443 355.807C207.379 353.997 205.65 351.836 204.336 349.425C204.803 347.15 205.582 344.951 206.651 342.889V342.889Z" fill="#5982C8"/>
<path opacity="0.3" d="M206.651 342.889C207.423 341.585 207.915 340.134 208.095 338.63C208.121 338.282 208.223 337.944 208.392 337.64C208.562 337.335 208.795 337.071 209.077 336.866L209.303 338.804C209.341 339.182 209.457 339.547 209.644 339.878C209.832 340.208 210.085 340.496 210.39 340.723C210.959 341.143 211.669 341.328 212.371 341.24C213.074 341.152 213.716 340.797 214.164 340.25L214.282 340.1C215.15 339.021 216.317 338.225 217.638 337.81C218.958 337.395 220.371 337.381 221.7 337.769L224.533 338.575C224.951 338.693 225.323 338.938 225.597 339.274C225.872 339.611 226.037 340.024 226.069 340.458C226.524 348.377 231.066 358.596 235.406 364.057C239.526 365.391 243.401 370.548 241.966 374.666L241.819 375.079C234.686 380.838 223.866 376.389 217.75 370.811C211.634 365.232 214.937 360.753 209.443 355.807C207.379 353.997 205.65 351.836 204.336 349.425C204.803 347.15 205.582 344.951 206.651 342.889V342.889Z" fill="black"/>
<path opacity="0.2" d="M206.651 342.889C207.423 341.585 207.915 340.134 208.095 338.63C208.121 338.282 208.223 337.944 208.392 337.64C208.562 337.335 208.795 337.071 209.077 336.866L209.303 338.804C209.341 339.182 209.457 339.547 209.644 339.878C209.832 340.208 210.085 340.496 210.39 340.723C210.959 341.143 211.669 341.328 212.371 341.24C213.074 341.152 213.716 340.797 214.164 340.25L214.282 340.1C215.15 339.021 216.317 338.225 217.638 337.81C218.958 337.395 220.371 337.381 221.7 337.769L224.533 338.575C224.951 338.693 225.323 338.938 225.597 339.274C225.872 339.611 226.037 340.024 226.069 340.458C226.524 348.377 231.066 358.596 235.406 364.057C239.526 365.391 243.401 370.548 241.966 374.666L241.819 375.079C234.686 380.838 223.866 376.389 217.75 370.811C211.634 365.232 214.937 360.753 209.443 355.807C207.379 353.997 205.65 351.836 204.336 349.425C204.803 347.15 205.582 344.951 206.651 342.889V342.889Z" fill="white"/>
<path d="M218.612 353.426C218.392 353.548 218.133 353.582 217.888 353.522C217.643 353.462 217.43 353.311 217.292 353.1C217.17 352.884 217.133 352.631 217.188 352.389C217.243 352.148 217.385 351.935 217.588 351.793C219.164 350.722 220.991 350.078 222.891 349.926C224.79 349.773 226.697 350.117 228.423 350.923C228.643 351.537 228.872 352.141 229.111 352.744C225.782 351.386 222.525 351.055 218.612 353.426Z" fill="white"/>
<path d="M216.873 349.262C216.662 349.328 216.434 349.323 216.226 349.246C216.018 349.169 215.842 349.025 215.724 348.837C215.607 348.649 215.556 348.427 215.578 348.206C215.601 347.986 215.696 347.779 215.849 347.618C217.506 346.533 219.412 345.888 221.388 345.745C223.364 345.603 225.344 345.966 227.14 346.803C227.306 347.458 227.487 348.095 227.684 348.715C224.226 347.247 220.88 346.813 216.873 349.262Z" fill="white"/>
<path d="M220.479 357.56C220.258 357.682 220 357.716 219.755 357.656C219.51 357.596 219.297 357.445 219.159 357.234C219.037 357.018 219 356.765 219.055 356.523C219.11 356.282 219.252 356.069 219.455 355.927C220.996 354.883 222.776 354.248 224.63 354.08C226.483 353.912 228.349 354.216 230.052 354.966C230.345 355.611 230.647 356.256 230.96 356.899C227.639 355.521 224.352 355.192 220.479 357.56Z" fill="white"/>
<path d="M235.419 364.096C239.539 365.43 243.414 370.587 241.979 374.705L241.832 375.118C234.803 380.788 224.218 376.531 218.043 371.088C222.051 361.396 232.165 362.922 235.419 364.096Z" fill="white"/>
<path d="M222.477 361.583C222.267 361.646 222.043 361.638 221.838 361.561C221.633 361.483 221.46 361.341 221.343 361.156C221.227 360.971 221.175 360.752 221.195 360.534C221.215 360.316 221.305 360.111 221.453 359.95C222.997 358.904 224.782 358.268 226.639 358.101C228.496 357.935 230.365 358.243 232.071 358.997C232.469 359.708 232.875 360.387 233.238 361.04C229.849 359.567 226.485 359.144 222.477 361.583Z" fill="white"/>
<path d="M238.516 349.05C239.557 353.15 242.894 359.734 242.894 359.734L240.007 360.126C238.637 360.312 237.352 360.898 236.312 361.809C235.272 362.72 234.523 363.917 234.158 365.25L234.102 365.435C233.915 366.115 233.474 366.697 232.871 367.061C232.267 367.425 231.547 367.543 230.858 367.391V367.391C230.49 367.307 230.142 367.148 229.838 366.924C229.533 366.7 229.278 366.416 229.089 366.088L223.267 356.052L238.516 349.05Z" fill="#FFA8A7"/>
<path d="M249.769 392.017C257.625 394.647 269.308 394.352 273.511 386.209L273.679 388.303C269.477 396.455 257.793 396.75 249.938 394.12C242.082 391.49 243.271 386.048 236.274 383.74C233.71 383.032 231.328 381.783 229.288 380.077C229.239 379.459 229.048 378.702 228.876 377.813C231.039 379.509 233.488 380.808 236.106 381.647C243.142 383.941 241.903 389.378 249.769 392.017Z" fill="#F5F5F5"/>
<path d="M228.319 370.875C228.51 369.375 228.388 367.851 227.96 366.4C227.839 366.071 227.792 365.719 227.823 365.369C227.854 365.02 227.962 364.682 228.139 364.379L229.126 366.055C229.402 366.507 229.804 366.869 230.282 367.098C230.76 367.326 231.294 367.411 231.819 367.343C232.344 367.274 232.838 367.054 233.241 366.711C233.644 366.367 233.939 365.914 234.09 365.406L234.145 365.221C234.51 363.888 235.26 362.691 236.299 361.78C237.339 360.869 238.624 360.283 239.994 360.097L242.972 359.697C243.408 359.637 243.853 359.715 244.243 359.919C244.633 360.123 244.95 360.444 245.15 360.837C248.727 367.903 257.044 375.412 263.223 378.658C267.522 378.213 273.152 381.373 273.501 385.719L273.536 386.157C269.334 394.299 257.65 394.595 249.795 391.965C241.939 389.335 243.128 383.892 236.132 381.595C233.513 380.755 231.065 379.457 228.902 377.761C228.382 375.505 228.186 373.186 228.319 370.875Z" fill="#5982C8"/>
<path opacity="0.3" d="M228.319 370.875C228.51 369.375 228.388 367.851 227.96 366.4C227.839 366.071 227.792 365.719 227.823 365.369C227.854 365.02 227.962 364.682 228.139 364.379L229.126 366.055C229.402 366.507 229.804 366.869 230.282 367.098C230.76 367.326 231.294 367.411 231.819 367.343C232.344 367.274 232.838 367.054 233.241 366.711C233.644 366.367 233.939 365.914 234.09 365.406L234.145 365.221C234.51 363.888 235.26 362.691 236.299 361.78C237.339 360.869 238.624 360.283 239.994 360.097L242.972 359.697C243.408 359.637 243.853 359.715 244.243 359.919C244.633 360.123 244.95 360.444 245.15 360.837C248.727 367.903 257.044 375.412 263.223 378.658C267.522 378.213 273.152 381.373 273.501 385.719L273.536 386.157C269.334 394.299 257.65 394.595 249.795 391.965C241.939 389.335 243.128 383.892 236.132 381.595C233.513 380.755 231.065 379.457 228.902 377.761C228.382 375.505 228.186 373.186 228.319 370.875Z" fill="black"/>
<path opacity="0.2" d="M228.319 370.875C228.51 369.375 228.388 367.851 227.96 366.4C227.839 366.071 227.792 365.719 227.823 365.369C227.854 365.02 227.962 364.682 228.139 364.379L229.126 366.055C229.402 366.507 229.804 366.869 230.282 367.098C230.76 367.326 231.294 367.411 231.819 367.343C232.344 367.274 232.838 367.054 233.241 366.711C233.644 366.367 233.939 365.914 234.09 365.406L234.145 365.221C234.51 363.888 235.26 362.691 236.299 361.78C237.339 360.869 238.624 360.283 239.994 360.097L242.972 359.697C243.408 359.637 243.853 359.715 244.243 359.919C244.633 360.123 244.95 360.444 245.15 360.837C248.727 367.903 257.044 375.412 263.223 378.658C267.522 378.213 273.152 381.373 273.501 385.719L273.536 386.157C269.334 394.299 257.65 394.595 249.795 391.965C241.939 389.335 243.128 383.892 236.132 381.595C233.513 380.755 231.065 379.457 228.902 377.761C228.382 375.505 228.186 373.186 228.319 370.875Z" fill="white"/>
<path d="M243.507 375.736C243.34 375.877 243.131 375.96 242.913 375.971C242.694 375.982 242.478 375.921 242.298 375.798C242.117 375.675 241.982 375.496 241.913 375.289C241.843 375.081 241.844 374.857 241.915 374.65C242.927 373.036 244.341 371.713 246.018 370.81C247.696 369.907 249.579 369.455 251.483 369.498C251.932 369.964 252.381 370.429 252.848 370.883C251.004 370.813 249.174 371.224 247.536 372.075C245.898 372.925 244.51 374.187 243.507 375.736Z" fill="white"/>
<path d="M240.247 372.627C240.094 372.825 239.871 372.959 239.624 373.001C239.376 373.044 239.122 372.991 238.911 372.854C238.71 372.707 238.571 372.489 238.521 372.245C238.472 372 238.516 371.745 238.645 371.531C239.722 369.87 241.206 368.511 242.956 367.584C244.705 366.657 246.663 366.192 248.643 366.235C249.046 366.757 249.468 367.265 249.909 367.758C246.18 367.797 242.918 368.771 240.247 372.627Z" fill="white"/>
<path d="M246.89 378.765C246.736 378.964 246.514 379.098 246.266 379.14C246.019 379.182 245.764 379.129 245.554 378.993C245.449 378.925 245.359 378.836 245.289 378.733C245.219 378.63 245.171 378.514 245.146 378.392C245.121 378.27 245.121 378.144 245.145 378.022C245.17 377.899 245.218 377.783 245.288 377.68C246.277 376.104 247.65 374.805 249.278 373.904C250.905 373.003 252.735 372.53 254.595 372.529C255.126 373.008 255.672 373.446 256.202 373.915C254.362 373.847 252.537 374.258 250.904 375.109C249.272 375.959 247.888 377.219 246.89 378.765Z" fill="white"/>
<path d="M263.198 378.71C267.496 378.265 273.127 381.425 273.475 385.771L273.51 386.209C269.369 394.236 257.975 394.639 250.127 392.099C249.869 381.636 259.746 378.957 263.198 378.71Z" fill="white"/>
<path d="M250.341 381.638C250.174 381.784 249.964 381.871 249.744 381.884C249.523 381.898 249.304 381.838 249.121 381.714C248.937 381.59 248.801 381.409 248.732 381.199C248.662 380.989 248.665 380.761 248.739 380.553C249.73 378.973 251.108 377.67 252.741 376.769C254.375 375.867 256.211 375.396 258.076 375.399C258.728 375.889 259.366 376.349 260.013 376.779C256.274 376.818 253.022 377.791 250.341 381.638Z" fill="white"/>
<path d="M185.949 253.809L225.676 271.94C229.283 273.586 232.281 276.324 234.248 279.766C236.214 283.208 237.05 287.182 236.636 291.124L232.436 331.42L240.03 350.162C235.366 357.559 223.416 358.909 223.416 358.909C215.651 346.029 210.279 340.722 205.58 329.793C200.881 318.864 197.726 311.302 197.726 311.302L165.454 305.204C158.073 303.825 151.274 300.263 145.939 294.979C140.604 289.694 136.977 282.931 135.527 275.563C134.606 270.831 134.324 267.573 134.324 267.573L185.949 253.809Z" fill="#455A64"/>
<path opacity="0.2" d="M186.487 264.521C186.818 268.763 185.64 272.986 183.161 276.445L211.343 291.098C215.48 293.242 218.703 296.81 220.416 301.144L232.436 331.42L221.098 297.518C219.793 293.618 217.013 290.384 213.352 288.509L187.344 275.196C189.368 268.664 186.487 264.521 186.487 264.521Z" fill="black"/>
<path d="M211.049 210.423L216.786 215.159C221.688 207.743 228.646 202.439 234.28 192.136C235.946 189.644 235.375 185.025 236.437 182.512C237.284 180.558 238.773 177.62 239.365 175.987C239.415 175.844 239.495 175.713 239.6 175.603C239.706 175.494 239.833 175.409 239.975 175.353C240.116 175.298 240.268 175.274 240.42 175.283C240.571 175.293 240.719 175.335 240.853 175.406C242.794 176.585 242.081 179.832 241.391 183.238C240.578 187.236 246.045 181.47 246.76 180.51C250.22 176.741 252.778 167.989 255.356 168.614C257.935 169.24 256.292 173.656 256.292 173.656C258.675 173.966 258.088 177.775 258.088 177.775C259.679 180.105 259.584 183.915 257.024 187.642C255.155 190.36 249.843 194.298 247.08 196.245C245.944 197.064 245.002 198.123 244.319 199.346L228.196 227.957C227.458 229.27 226.46 230.419 225.264 231.335C224.068 232.251 222.699 232.914 221.239 233.285C219.779 233.655 218.259 233.725 216.771 233.49C215.283 233.255 213.858 232.721 212.583 231.919L202.019 225.293L211.049 210.423Z" fill="#FFA8A7"/>
<path d="M228.885 200.283C225.845 204.54 220.115 207.518 216.845 214.151L211.694 210.09C203.338 202.976 188.284 187.651 178.203 188.911L180.058 212.027C187.131 217.331 194.517 222.206 202.176 226.624L214.1 233.573C215.364 234.302 216.764 234.766 218.214 234.935C219.664 235.104 221.133 234.975 222.531 234.555C223.93 234.136 225.227 233.435 226.345 232.496C227.462 231.557 228.376 230.399 229.03 229.094L240.155 206.833C237.841 206.965 235.54 206.415 233.536 205.25C231.533 204.086 229.915 202.359 228.885 200.283V200.283Z" fill="#5982C8"/>
<path opacity="0.2" d="M228.885 200.283C225.845 204.54 220.115 207.518 216.845 214.151L211.694 210.09C203.338 202.976 188.284 187.651 178.203 188.911L180.058 212.027C187.131 217.331 194.517 222.206 202.176 226.624L214.1 233.573C215.364 234.302 216.764 234.766 218.214 234.935C219.664 235.104 221.133 234.975 222.531 234.555C223.93 234.136 225.227 233.435 226.345 232.496C227.462 231.557 228.376 230.399 229.03 229.094L240.155 206.833C237.841 206.965 235.54 206.415 233.536 205.25C231.533 204.086 229.915 202.359 228.885 200.283V200.283Z" fill="white"/>
<path d="M133.955 270.602C141.214 276.541 173.716 275.136 188.989 258.07C186.513 247.083 186.086 235.139 186.198 223.282C186.309 211.425 191.575 190.276 178.205 188.941C160.386 186.92 148.945 188.109 137.743 195.659C126.895 217.497 131.116 248.599 133.955 270.602Z" fill="#5982C8"/>
<path d="M133.955 270.602C141.214 276.541 173.716 275.136 188.989 258.07C186.513 247.083 186.086 235.139 186.198 223.282C186.309 211.425 191.575 190.276 178.205 188.941C160.386 186.92 148.945 188.109 137.743 195.659C126.895 217.497 131.116 248.599 133.955 270.602Z" fill="#5982C8"/>
<path opacity="0.4" d="M133.955 270.602C141.214 276.541 173.716 275.136 188.989 258.07C186.513 247.083 186.086 235.139 186.198 223.282C186.309 211.425 191.575 190.276 178.205 188.941C160.386 186.92 148.945 188.109 137.743 195.659C126.895 217.497 131.116 248.599 133.955 270.602Z" fill="white"/>
<path d="M238.339 265.968L195.8 295.304L195.627 295.409L195.528 295.417C195.418 295.468 195.304 295.51 195.187 295.544L194.948 295.563L194.778 295.577L194.34 295.612L193.881 295.649L193.588 295.622L193.221 295.551C193.11 295.532 193.003 295.496 192.902 295.447L177.879 288.265L221.792 258.036L238.339 265.968Z" fill="#E0E0E0"/>
<path d="M195.338 262.296L204.127 266.556C204.261 266.62 204.376 266.719 204.46 266.841C204.545 266.964 204.595 267.107 204.607 267.255C204.619 267.403 204.592 267.552 204.528 267.687C204.464 267.821 204.367 267.937 204.244 268.022L192.276 276.275C192.073 276.418 191.836 276.503 191.589 276.523C191.342 276.543 191.094 276.496 190.871 276.388L182.081 272.118C181.947 272.053 181.832 271.955 181.747 271.832C181.663 271.71 181.612 271.567 181.6 271.419C181.588 271.27 181.616 271.122 181.679 270.987C181.743 270.853 181.841 270.737 181.963 270.652L193.921 262.399C194.126 262.256 194.366 262.171 194.615 262.153C194.865 262.135 195.114 262.184 195.338 262.296Z" fill="#E0E0E0"/>
<path opacity="0.4" d="M238.339 265.968L195.8 295.304L195.627 295.409L195.528 295.417C195.418 295.468 195.304 295.51 195.187 295.544L194.948 295.563L194.778 295.577L194.34 295.612L193.881 295.649L193.588 295.622L193.221 295.551C193.11 295.532 193.003 295.496 192.902 295.447L177.879 288.265L221.792 258.036L238.339 265.968Z" fill="black"/>
<path opacity="0.4" d="M195.338 262.296L204.127 266.556C204.261 266.62 204.376 266.719 204.46 266.841C204.545 266.964 204.595 267.107 204.607 267.255C204.619 267.403 204.592 267.552 204.528 267.687C204.464 267.821 204.367 267.937 204.244 268.022L192.276 276.275C192.073 276.418 191.836 276.503 191.589 276.523C191.342 276.543 191.094 276.496 190.871 276.388L182.081 272.118C181.947 272.053 181.832 271.955 181.747 271.832C181.663 271.71 181.612 271.567 181.6 271.419C181.588 271.27 181.616 271.122 181.679 270.987C181.743 270.853 181.841 270.737 181.963 270.652L193.921 262.399C194.126 262.256 194.366 262.171 194.615 262.153C194.865 262.135 195.114 262.184 195.338 262.296Z" fill="black"/>
<path d="M194.665 296.168L196.994 265.564C197.052 264.728 197.297 263.916 197.711 263.189C198.125 262.461 198.697 261.835 199.386 261.359L243.457 230.735C243.633 230.613 243.834 230.533 244.046 230.502C244.258 230.472 244.474 230.49 244.677 230.557V230.557L245.817 231.017L245.46 231.187C245.597 231.433 245.661 231.713 245.645 231.994L243.316 262.599C243.26 263.434 243.015 264.247 242.601 264.975C242.187 265.703 241.614 266.328 240.924 266.803L196.853 297.427C196.763 297.487 196.666 297.535 196.563 297.571L196.599 298.019L195.49 297.576C195.221 297.46 194.996 297.261 194.847 297.007C194.699 296.754 194.635 296.46 194.665 296.168V296.168Z" fill="#E0E0E0"/>
<path opacity="0.3" d="M194.665 296.168L196.994 265.564C197.052 264.728 197.297 263.916 197.711 263.189C198.125 262.461 198.697 261.835 199.386 261.359L243.457 230.735C243.633 230.613 243.834 230.533 244.046 230.502C244.258 230.472 244.474 230.49 244.677 230.557V230.557L245.817 231.017L245.46 231.187C245.597 231.433 245.661 231.713 245.645 231.994L243.316 262.599C243.26 263.434 243.015 264.247 242.601 264.975C242.187 265.703 241.614 266.328 240.924 266.803L196.853 297.427C196.763 297.487 196.666 297.535 196.563 297.571L196.599 298.019L195.49 297.576C195.221 297.46 194.996 297.261 194.847 297.007C194.699 296.754 194.635 296.46 194.665 296.168V296.168Z" fill="black"/>
<path d="M200.311 261.766L244.383 231.143C244.6 230.991 244.855 230.905 245.119 230.893C245.383 230.88 245.645 230.943 245.875 231.074C246.105 231.204 246.293 231.397 246.418 231.63C246.542 231.864 246.599 232.127 246.58 232.391L244.251 263.005C244.192 263.839 243.947 264.649 243.535 265.376C243.123 266.103 242.555 266.73 241.87 267.209L197.788 297.833C197.571 297.983 197.316 298.067 197.052 298.078C196.788 298.088 196.527 298.024 196.298 297.892C196.07 297.761 195.883 297.567 195.76 297.334C195.636 297.101 195.581 296.838 195.601 296.574L197.96 265.968C198.014 265.136 198.253 264.328 198.66 263.601C199.067 262.874 199.631 262.247 200.311 261.766Z" fill="#E0E0E0"/>
<path d="M222.823 260.762C221.709 261.589 220.775 262.634 220.078 263.833C219.381 265.033 218.935 266.362 218.768 267.739C218.649 270.126 220.283 270.868 222.413 269.403C223.527 268.575 224.461 267.529 225.16 266.33C225.859 265.131 226.307 263.802 226.478 262.425C226.587 260.039 224.953 259.297 222.823 260.762Z" fill="white"/>
<path d="M142.814 232.853L139.786 247.502L166.749 263.577L175.621 266.496C177.968 267.272 180.059 268.676 181.665 270.556L189.419 279.675C190.337 281.236 186.901 284.171 185.182 284.76C184.194 285.1 183.136 285.189 182.104 285.018C181.073 284.847 180.1 284.421 179.275 283.779L173.472 279.229L171.935 278.831C167.451 277.634 163.439 275.096 160.437 271.557V271.557L129.601 262.344C126.887 261.538 124.567 259.755 123.089 257.339C121.612 254.923 121.081 252.046 121.599 249.262L125.102 230.412L142.814 232.853Z" fill="#FFA8A7"/>
<path d="M157.341 257.981L139.756 247.504L142.731 235.819L148.353 213.117C148.353 213.117 147.037 193.72 138.872 194.977C130.706 196.234 126.902 201.335 122.898 230.579L120.527 248.034C120.06 251.499 120.882 255.014 122.836 257.913C124.791 260.812 127.742 262.891 131.129 263.757L152.884 269.324C152.387 267.205 152.548 264.984 153.344 262.958C154.14 260.932 155.534 259.196 157.341 257.981V257.981Z" fill="#5982C8"/>
<path opacity="0.2" d="M157.341 257.981L139.756 247.504L142.731 235.819L148.353 213.117C148.353 213.117 147.037 193.72 138.872 194.977C130.706 196.234 126.902 201.335 122.898 230.579L120.527 248.034C120.06 251.499 120.882 255.014 122.836 257.913C124.791 260.812 127.742 262.891 131.129 263.757L152.884 269.324C152.387 267.205 152.548 264.984 153.344 262.958C154.14 260.932 155.534 259.196 157.341 257.981V257.981Z" fill="white"/>
<path d="M155.026 183.137C152.232 178.816 149.743 174.301 146.948 169.981C145.127 167.167 143.248 164.258 142.888 160.896C142.715 159.016 143.028 157.123 143.798 155.399C144.568 153.675 145.769 152.178 147.285 151.053C147.991 144.977 152.421 139.425 158.386 138.124C162.115 137.333 165.972 138.016 169.788 138.061C173.604 138.106 177.752 137.292 180.183 134.338C181.125 135.425 181.692 136.787 181.799 138.221C181.933 139.623 181.605 141.03 180.867 142.228C181.972 141.8 183.195 141.791 184.306 142.203C184.764 142.512 185.124 142.945 185.342 143.453C185.561 143.96 185.629 144.519 185.539 145.064C185.356 146.161 184.872 147.187 184.141 148.025C184.92 148.366 185.591 148.913 186.081 149.608C186.572 150.302 186.864 151.117 186.925 151.965C186.914 152.799 186.738 153.622 186.407 154.388C186.075 155.153 185.596 155.845 184.996 156.424C182.74 158.691 179.393 159.371 176.249 159.945L160.271 162.862L155.026 183.137Z" fill="#37474F"/>
<path d="M172.9 201.837C173.388 200.354 173.575 198.789 173.45 197.233C173.325 195.677 172.891 194.162 172.172 192.776L171.2 180.655L154.496 173.147L155.216 186.623C158.827 194.87 169.449 197.589 172.9 201.837Z" fill="#FFA8A7"/>
<path opacity="0.2" d="M163.279 185.213C166.054 186.285 169.468 187.325 171.788 187.981L171.2 180.655L154.496 173.147C155.265 181.111 158.671 183.426 163.279 185.213Z" fill="black"/>
<path d="M152.34 192.792C153.085 196.455 156.579 201.481 163.454 206.277C163.454 206.277 165.401 200.532 168.427 199.858C169.96 200.408 171.456 201.056 172.906 201.796C169.455 197.549 158.82 194.901 155.22 186.552C154.24 187.714 153.443 190.286 152.34 192.792Z" fill="#5982C8"/>
<path d="M172.9 201.837C173.388 200.354 173.575 198.789 173.45 197.233C173.325 195.677 172.891 194.162 172.172 192.776L171.788 187.981C174.948 190.737 179.2 194.961 180.545 199.728C178.878 198.448 176.321 195.463 175.585 197.297C174.782 200.793 172.9 201.837 172.9 201.837Z" fill="#5982C8"/>
<path opacity="0.2" d="M152.34 192.792C153.085 196.455 156.579 201.481 163.454 206.277C163.454 206.277 165.401 200.532 168.427 199.858C169.96 200.408 171.456 201.056 172.906 201.796C169.455 197.549 158.82 194.901 155.22 186.552C154.24 187.714 153.443 190.286 152.34 192.792Z" fill="white"/>
<path opacity="0.2" d="M172.9 201.837C173.388 200.354 173.575 198.789 173.45 197.233C173.325 195.677 172.891 194.162 172.172 192.776L171.788 187.981C174.948 190.737 179.2 194.961 180.545 199.728C178.878 198.448 176.321 195.463 175.585 197.297C174.782 200.793 172.9 201.837 172.9 201.837Z" fill="white"/>
<path d="M182.679 148.564C184.097 157.849 184.592 167.252 184.16 176.635C184.124 177.73 183.867 178.807 183.406 179.8C182.945 180.794 182.289 181.685 181.476 182.419C180.663 183.154 179.711 183.717 178.676 184.076C177.641 184.435 176.544 184.581 175.451 184.507C171.497 184.197 167.563 183.669 163.667 182.925C161.739 182.564 159.943 181.691 158.467 180.397C156.992 179.103 155.892 177.437 155.282 175.572L154.497 173.167C153.402 175.141 150.693 175.77 148.56 175.068C147.497 174.672 146.55 174.015 145.807 173.158C145.063 172.301 144.547 171.271 144.304 170.163C144.011 169.073 144.02 167.925 144.329 166.84C144.639 165.752 145.365 164.829 146.349 164.27C147.26 163.869 148.272 163.758 149.248 163.952C150.224 164.147 151.117 164.637 151.804 165.357C153.154 166.83 154.053 168.659 154.394 170.627C157.072 167.071 158.235 162.599 157.629 158.188C159.11 157.913 160.434 157.091 161.337 155.884C161.715 155.286 161.97 154.618 162.086 153.919C162.202 153.221 162.178 152.506 162.013 151.817C168.568 154.492 177.122 152.942 182.679 148.564Z" fill="#FFA8A7"/>
<path d="M172.589 162.837L178.681 169.119L173.732 171.332L172.589 162.837Z" fill="#F28F8F"/>
<path d="M169.335 175.046L173.727 176.018C173.496 176.546 173.099 176.984 172.597 177.265C172.094 177.546 171.513 177.655 170.943 177.576C170.425 177.402 169.983 177.056 169.691 176.596C169.398 176.135 169.272 175.588 169.335 175.046V175.046Z" fill="#F28F8F"/>
<path opacity="0.3" d="M169.335 175.046L173.727 176.018C173.496 176.546 173.099 176.984 172.597 177.265C172.094 177.546 171.513 177.655 170.943 177.576C170.425 177.402 169.983 177.056 169.691 176.596C169.398 176.135 169.272 175.588 169.335 175.046V175.046Z" fill="black"/>
<path d="M172.342 177.383C171.906 177.589 171.418 177.656 170.943 177.576C170.534 177.459 170.169 177.224 169.895 176.899C169.62 176.574 169.449 176.175 169.402 175.753C169.965 175.619 170.558 175.681 171.081 175.929C171.377 176.076 171.641 176.281 171.857 176.53C172.073 176.78 172.238 177.07 172.342 177.383V177.383Z" fill="#F28F8F"/>
<path d="M165.151 164.918C165.192 165.218 165.321 165.5 165.521 165.727C165.721 165.954 165.985 166.116 166.278 166.193C166.57 166.27 166.88 166.259 167.166 166.16C167.452 166.062 167.703 165.88 167.886 165.639C168.069 165.398 168.177 165.108 168.195 164.806C168.213 164.504 168.141 164.203 167.988 163.941C167.835 163.68 167.608 163.47 167.336 163.337C167.064 163.205 166.758 163.157 166.458 163.198C166.259 163.224 166.067 163.29 165.893 163.391C165.72 163.492 165.568 163.626 165.446 163.786C165.325 163.946 165.236 164.128 165.185 164.323C165.135 164.517 165.123 164.719 165.151 164.918V164.918Z" fill="#263238"/>
<path d="M177.816 162.718C177.856 163.018 177.985 163.299 178.185 163.526C178.385 163.753 178.647 163.915 178.94 163.993C179.232 164.071 179.541 164.06 179.827 163.962C180.113 163.864 180.364 163.684 180.548 163.444C180.731 163.204 180.84 162.914 180.859 162.613C180.879 162.311 180.808 162.01 180.657 161.748C180.505 161.486 180.28 161.275 180.009 161.142C179.737 161.008 179.432 160.958 179.133 160.997C178.731 161.053 178.367 161.265 178.121 161.587C177.874 161.909 177.765 162.316 177.816 162.718Z" fill="#263238"/>
<path d="M178.48 156.485L182.151 158.357C182.246 157.922 182.203 157.467 182.028 157.057C181.853 156.647 181.555 156.301 181.175 156.068C180.732 155.877 180.244 155.814 179.767 155.888C179.29 155.962 178.844 156.169 178.48 156.485V156.485Z" fill="#263238"/>
<path d="M165.473 158.051L162.425 160.823C162.221 160.428 162.144 159.979 162.204 159.538C162.264 159.098 162.457 158.686 162.759 158.359C163.137 158.058 163.592 157.87 164.072 157.816C164.552 157.761 165.037 157.843 165.473 158.051Z" fill="#263238"/>
<path d="M321.162 189.056C322.36 188.227 323.433 188.723 323.549 190.168L324.196 198.233C324.219 199.023 324.055 199.807 323.716 200.521C323.378 201.235 322.875 201.859 322.249 202.341L255.164 248.596C253.966 249.425 252.893 248.929 252.777 247.483L252.13 239.419C252.107 238.629 252.271 237.845 252.609 237.131C252.948 236.416 253.451 235.793 254.077 235.31L321.162 189.056Z" fill="#5982C8"/>
<g opacity="0.3">
<path opacity="0.3" d="M321.162 189.056C322.36 188.227 323.433 188.723 323.549 190.168L324.196 198.233C324.219 199.023 324.055 199.807 323.716 200.521C323.378 201.235 322.875 201.859 322.249 202.341L255.164 248.596C253.966 249.425 252.893 248.929 252.777 247.483L252.13 239.419C252.107 238.629 252.271 237.845 252.609 237.131C252.948 236.416 253.451 235.793 254.077 235.31L321.162 189.056Z" fill="black"/>
</g>
<g opacity="0.2">
<path opacity="0.2" d="M321.162 189.056C322.36 188.227 323.433 188.723 323.549 190.168L324.196 198.233C324.219 199.023 324.055 199.807 323.716 200.521C323.378 201.235 322.875 201.859 322.249 202.341L255.164 248.596C253.966 249.425 252.893 248.929 252.777 247.483L252.13 239.419C252.107 238.629 252.271 237.845 252.609 237.131C252.948 236.416 253.451 235.793 254.077 235.31L321.162 189.056Z" fill="white"/>
</g>
<path d="M323.802 203.702C324.249 203.395 324.636 203.585 324.678 204.113L324.918 207.103C324.925 207.392 324.865 207.678 324.741 207.939C324.617 208.2 324.434 208.428 324.206 208.605L254.375 257.016C253.938 257.322 253.542 257.143 253.499 256.605L253.259 253.615C253.249 253.324 253.308 253.036 253.432 252.773C253.556 252.51 253.74 252.28 253.97 252.103L323.802 203.702Z" fill="#5982C8"/>
<g opacity="0.3">
<path opacity="0.3" d="M323.802 203.702C324.249 203.395 324.636 203.585 324.678 204.113L324.918 207.103C324.925 207.392 324.865 207.678 324.741 207.939C324.617 208.2 324.434 208.428 324.206 208.605L254.375 257.016C253.938 257.322 253.542 257.143 253.499 256.605L253.259 253.615C253.249 253.324 253.308 253.036 253.432 252.773C253.556 252.51 253.74 252.28 253.97 252.103L323.802 203.702Z" fill="white"/>
</g>
<path d="M324.375 210.839C324.822 210.532 325.208 210.712 325.251 211.25L325.491 214.24C325.498 214.53 325.438 214.818 325.314 215.081C325.191 215.343 325.008 215.573 324.779 215.752L254.948 264.163C254.511 264.469 254.111 264.23 254.073 263.752L253.833 260.762C253.823 260.473 253.883 260.186 254.007 259.925C254.131 259.663 254.315 259.436 254.545 259.26L324.375 210.839Z" fill="#5982C8"/>
<g opacity="0.3">
<path opacity="0.3" d="M324.375 210.839C324.822 210.532 325.208 210.712 325.251 211.25L325.491 214.24C325.498 214.53 325.438 214.818 325.314 215.081C325.191 215.343 325.008 215.573 324.779 215.752L254.948 264.163C254.511 264.469 254.111 264.23 254.073 263.752L253.833 260.762C253.823 260.473 253.883 260.186 254.007 259.925C254.131 259.663 254.315 259.436 254.545 259.26L324.375 210.839Z" fill="white"/>
</g>
<path d="M264.577 213.38L264.904 217.457C264.996 218.502 264.805 219.552 264.352 220.498C263.898 221.443 263.198 222.249 262.325 222.831C260.529 224.068 259.375 223.569 259.201 221.396L258.875 217.339L260.599 216.197L260.919 220.185C261.02 221.441 261.498 221.643 262.22 221.144C262.61 220.856 262.911 220.465 263.087 220.014C263.264 219.563 263.31 219.071 263.22 218.596L262.9 214.608L264.577 213.38Z" fill="#5982C8"/>
<path d="M268.522 210.666C270.177 209.53 271.295 209.841 271.439 211.505C271.456 212.415 271.238 213.313 270.804 214.113C270.371 214.912 269.737 215.586 268.966 216.068L267.911 216.794L268.064 218.708L266.344 219.9L265.756 212.573L268.522 210.666ZM268.73 214.502C269.037 214.317 269.29 214.053 269.46 213.738C269.631 213.422 269.713 213.067 269.699 212.708C269.644 212.021 269.261 211.871 268.549 212.369L267.598 213.027L267.769 215.161L268.72 214.502" fill="#5982C8"/>
<path d="M273.769 207.045L274.235 212.716L277.134 210.717L277.266 212.362L272.655 215.541L272.048 208.226L273.769 207.045Z" fill="#5982C8"/>
<path d="M280.297 202.377C282.196 201.041 283.811 201.664 283.987 203.857C284.021 205.051 283.761 206.235 283.229 207.305C282.697 208.374 281.91 209.297 280.938 209.991C278.989 211.331 277.424 210.704 277.238 208.512C277.206 207.317 277.468 206.132 278.001 205.063C278.535 203.993 279.323 203.071 280.297 202.377V202.377ZM280.771 208.278C281.262 207.906 281.653 207.417 281.908 206.855C282.162 206.293 282.272 205.677 282.228 205.062C282.126 203.796 281.338 203.468 280.425 204.103C279.933 204.475 279.541 204.964 279.285 205.526C279.029 206.088 278.916 206.704 278.958 207.32C279.059 208.576 279.848 208.914 280.771 208.278" fill="#5982C8"/>
<path d="M288.152 197.122L291.449 202.586L289.653 203.824L289.062 202.717L286.496 204.498L286.136 206.253L284.386 207.457L286.457 198.261L288.152 197.122ZM286.86 202.653L288.41 201.586L287.441 199.768L286.86 202.653Z" fill="#5982C8"/>
<path d="M294.198 192.955C296.213 191.57 297.705 192.032 297.895 194.274C297.935 195.454 297.673 196.625 297.132 197.675C296.591 198.724 295.789 199.618 294.805 200.27L291.954 202.245L291.367 194.928L294.198 192.955ZM294.596 198.662C295.112 198.312 295.528 197.833 295.801 197.272C296.075 196.712 296.197 196.089 296.155 195.467C296.053 194.201 295.3 193.94 294.261 194.616L293.177 195.365L293.497 199.352L294.581 198.603" fill="#5982C8"/>
<path d="M300.216 188.811L300.823 196.126L299.102 197.307L298.495 189.992L300.216 188.811Z" fill="#5982C8"/>
<path d="M307.221 183.975L307.828 191.29L306.403 192.277L303.408 190.21L303.731 194.116L302.049 195.275L301.432 187.961L302.848 186.984L305.852 189.041L305.529 185.144L307.221 183.975Z" fill="#5982C8"/>
<path d="M311.497 180.873C312.628 180.09 313.587 179.923 314.256 180.38L313.259 182.327C313.012 182.199 312.733 182.151 312.457 182.187C312.182 182.224 311.925 182.343 311.72 182.53C311.201 182.899 310.785 183.394 310.511 183.97C310.238 184.545 310.116 185.18 310.158 185.816C310.256 187.042 311.03 187.431 312.042 186.668C312.401 186.431 312.717 186.134 312.975 185.79L312.815 183.797L314.326 182.752L314.566 185.743C313.936 186.799 313.094 187.714 312.093 188.429C310.194 189.765 308.61 189.16 308.432 186.937C308.401 185.752 308.664 184.577 309.199 183.518C309.734 182.46 310.524 181.551 311.497 180.873Z" fill="#5982C8"/>
<g opacity="0.3">
<path opacity="0.3" d="M264.577 213.38L264.904 217.457C264.996 218.502 264.805 219.552 264.352 220.498C263.898 221.443 263.198 222.249 262.325 222.831C260.529 224.068 259.375 223.569 259.201 221.396L258.875 217.339L260.599 216.197L260.919 220.185C261.02 221.441 261.498 221.643 262.22 221.144C262.61 220.856 262.911 220.465 263.087 220.014C263.264 219.563 263.31 219.071 263.22 218.596L262.9 214.608L264.577 213.38Z" fill="black"/>
<path opacity="0.3" d="M268.522 210.666C270.177 209.53 271.295 209.841 271.439 211.505C271.456 212.415 271.238 213.313 270.804 214.113C270.371 214.912 269.737 215.586 268.966 216.068L267.911 216.794L268.064 218.708L266.344 219.9L265.756 212.573L268.522 210.666ZM268.73 214.502C269.037 214.317 269.29 214.053 269.46 213.738C269.631 213.422 269.713 213.067 269.699 212.708C269.644 212.021 269.261 211.871 268.549 212.369L267.598 213.027L267.769 215.161L268.72 214.502" fill="black"/>
<path opacity="0.3" d="M273.769 207.045L274.235 212.716L277.134 210.717L277.266 212.362L272.655 215.541L272.048 208.226L273.769 207.045Z" fill="black"/>
<path opacity="0.3" d="M280.297 202.378C282.196 201.041 283.811 201.664 283.987 203.857C284.021 205.051 283.761 206.235 283.229 207.305C282.697 208.375 281.91 209.297 280.938 209.991C278.989 211.331 277.424 210.704 277.238 208.512C277.206 207.317 277.468 206.132 278.001 205.063C278.535 203.993 279.323 203.071 280.297 202.378V202.378ZM280.771 208.279C281.262 207.906 281.653 207.417 281.908 206.855C282.162 206.293 282.272 205.677 282.228 205.062C282.126 203.796 281.338 203.468 280.425 204.103C279.933 204.475 279.541 204.964 279.285 205.526C279.029 206.088 278.916 206.704 278.958 207.32C279.059 208.576 279.848 208.914 280.771 208.279" fill="black"/>
<path opacity="0.3" d="M288.152 197.122L291.449 202.586L289.653 203.824L289.062 202.717L286.496 204.498L286.136 206.253L284.386 207.457L286.457 198.261L288.152 197.122ZM286.86 202.653L288.41 201.586L287.441 199.768L286.86 202.653Z" fill="black"/>
<path opacity="0.3" d="M294.198 192.955C296.213 191.57 297.705 192.032 297.895 194.274C297.935 195.454 297.673 196.625 297.132 197.675C296.591 198.724 295.789 199.618 294.805 200.27L291.954 202.245L291.367 194.928L294.198 192.955ZM294.596 198.662C295.112 198.312 295.528 197.833 295.801 197.272C296.075 196.712 296.197 196.089 296.155 195.467C296.053 194.201 295.3 193.94 294.261 194.616L293.177 195.365L293.497 199.352L294.581 198.603" fill="black"/>
<path opacity="0.3" d="M300.216 188.811L300.823 196.126L299.102 197.307L298.495 189.992L300.216 188.811Z" fill="black"/>
<path opacity="0.3" d="M307.221 183.975L307.828 191.29L306.403 192.277L303.408 190.21L303.731 194.116L302.049 195.275L301.432 187.961L302.848 186.984L305.852 189.041L305.529 185.144L307.221 183.975Z" fill="black"/>
<path opacity="0.3" d="M311.497 180.873C312.628 180.09 313.587 179.923 314.256 180.38L313.259 182.327C313.012 182.199 312.733 182.151 312.457 182.187C312.182 182.224 311.925 182.343 311.72 182.53C311.201 182.899 310.785 183.394 310.511 183.97C310.238 184.545 310.116 185.18 310.158 185.816C310.256 187.042 311.03 187.431 312.042 186.668C312.401 186.431 312.717 186.134 312.975 185.79L312.815 183.797L314.326 182.752L314.566 185.743C313.936 186.799 313.094 187.714 312.093 188.429C310.194 189.765 308.61 189.16 308.432 186.937C308.401 185.752 308.664 184.577 309.199 183.518C309.734 182.46 310.524 181.551 311.497 180.873Z" fill="black"/>
</g>
<g opacity="0.1">
<path opacity="0.1" d="M264.577 213.38L264.904 217.457C264.996 218.502 264.805 219.552 264.352 220.498C263.898 221.443 263.198 222.249 262.325 222.831C260.529 224.068 259.375 223.569 259.201 221.396L258.875 217.339L260.599 216.197L260.919 220.185C261.02 221.441 261.498 221.643 262.22 221.144C262.61 220.856 262.911 220.465 263.087 220.014C263.264 219.563 263.31 219.071 263.22 218.596L262.9 214.608L264.577 213.38Z" fill="white"/>
<path opacity="0.1" d="M268.522 210.666C270.177 209.53 271.295 209.841 271.439 211.505C271.456 212.415 271.238 213.313 270.804 214.113C270.371 214.912 269.737 215.586 268.966 216.068L267.911 216.794L268.064 218.708L266.344 219.9L265.756 212.573L268.522 210.666ZM268.73 214.502C269.037 214.317 269.29 214.053 269.46 213.738C269.631 213.422 269.713 213.067 269.699 212.708C269.644 212.021 269.261 211.871 268.549 212.369L267.598 213.027L267.769 215.161L268.72 214.502" fill="white"/>
<path opacity="0.1" d="M273.769 207.045L274.235 212.716L277.134 210.717L277.266 212.362L272.655 215.541L272.048 208.226L273.769 207.045Z" fill="white"/>
<path opacity="0.1" d="M280.297 202.378C282.196 201.041 283.811 201.664 283.987 203.857C284.021 205.051 283.761 206.235 283.229 207.305C282.697 208.375 281.91 209.297 280.938 209.991C278.989 211.331 277.424 210.704 277.238 208.512C277.206 207.317 277.468 206.132 278.001 205.063C278.535 203.993 279.323 203.071 280.297 202.378V202.378ZM280.771 208.279C281.262 207.906 281.653 207.417 281.908 206.855C282.162 206.293 282.272 205.677 282.228 205.062C282.126 203.796 281.338 203.468 280.425 204.103C279.933 204.475 279.541 204.964 279.285 205.526C279.029 206.088 278.916 206.704 278.958 207.32C279.059 208.576 279.848 208.914 280.771 208.279" fill="white"/>
<path opacity="0.1" d="M288.152 197.122L291.449 202.586L289.653 203.824L289.062 202.717L286.496 204.498L286.136 206.253L284.386 207.457L286.457 198.261L288.152 197.122ZM286.86 202.653L288.41 201.586L287.441 199.768L286.86 202.653Z" fill="white"/>
<path opacity="0.1" d="M294.198 192.955C296.213 191.57 297.705 192.032 297.895 194.274C297.935 195.454 297.673 196.625 297.132 197.675C296.591 198.724 295.789 199.618 294.805 200.27L291.954 202.245L291.367 194.928L294.198 192.955ZM294.596 198.662C295.112 198.312 295.528 197.833 295.801 197.272C296.075 196.712 296.197 196.089 296.155 195.467C296.053 194.201 295.3 193.94 294.261 194.616L293.177 195.365L293.497 199.352L294.581 198.603" fill="white"/>
<path opacity="0.1" d="M300.216 188.811L300.823 196.126L299.102 197.307L298.495 189.992L300.216 188.811Z" fill="white"/>
<path opacity="0.1" d="M307.221 183.975L307.828 191.29L306.403 192.277L303.408 190.21L303.731 194.116L302.049 195.275L301.432 187.961L302.848 186.984L305.852 189.041L305.529 185.144L307.221 183.975Z" fill="white"/>
<path opacity="0.1" d="M311.497 180.873C312.628 180.09 313.587 179.923 314.256 180.38L313.259 182.327C313.012 182.199 312.733 182.151 312.457 182.187C312.182 182.224 311.925 182.343 311.72 182.53C311.201 182.899 310.785 183.394 310.511 183.97C310.238 184.545 310.116 185.18 310.158 185.816C310.256 187.042 311.03 187.431 312.042 186.668C312.401 186.431 312.717 186.134 312.975 185.79L312.815 183.797L314.326 182.752L314.566 185.743C313.936 186.799 313.094 187.714 312.093 188.429C310.194 189.765 308.61 189.16 308.432 186.937C308.401 185.752 308.664 184.577 309.199 183.518C309.734 182.46 310.524 181.551 311.497 180.873Z" fill="white"/>
</g>
<path d="M280.248 220.148L280.856 227.463L279.135 228.645L278.656 222.935L277.534 223.707L277.396 222.113L280.248 220.148Z" fill="white"/>
<path d="M283.831 217.533C285.37 216.467 286.613 217.079 286.807 219.492C286.934 220.555 286.785 221.633 286.374 222.622C285.963 223.611 285.304 224.477 284.461 225.137C282.911 226.205 281.658 225.593 281.465 223.181C281.34 222.115 281.492 221.036 281.906 220.046C282.321 219.057 282.983 218.191 283.831 217.533V217.533ZM284.305 223.444C284.857 223.069 285.21 222.218 285.087 220.683C284.963 219.148 284.518 218.843 283.966 219.218C283.414 219.593 283.062 220.454 283.185 221.989C283.308 223.524 283.753 223.82 284.305 223.444" fill="white"/>
<path d="M289.734 213.458C291.282 212.381 292.525 212.993 292.72 215.415C292.847 216.48 292.697 217.559 292.284 218.548C291.871 219.538 291.21 220.404 290.364 221.062C288.814 222.129 287.571 221.517 287.368 219.105C287.244 218.04 287.396 216.961 287.81 215.972C288.225 214.982 288.887 214.117 289.734 213.458ZM290.208 219.369C290.76 218.994 291.113 218.143 290.989 216.598C290.865 215.053 290.411 214.768 289.87 215.153C289.329 215.537 288.965 216.379 289.088 217.914C289.211 219.449 289.656 219.744 290.208 219.369Z" fill="white"/>
<path d="M296.222 211.182C296.277 211.778 296.178 212.378 295.933 212.925C295.689 213.472 295.308 213.946 294.828 214.303C293.934 214.917 293.217 214.613 293.106 213.348C293.05 212.753 293.148 212.153 293.39 211.607C293.633 211.06 294.012 210.585 294.49 210.227C295.443 209.599 296.112 209.937 296.222 211.182ZM294.15 212.612C294.209 213.35 294.47 213.479 294.737 213.297C294.924 213.124 295.063 212.905 295.139 212.661C295.214 212.417 295.224 212.157 295.167 211.909C295.107 211.161 294.865 211.02 294.57 211.224C294.387 211.4 294.252 211.62 294.179 211.863C294.105 212.106 294.095 212.364 294.15 212.612" fill="white"/>
<path d="M298.091 207.842L299.336 206.979L295.799 217.155L294.554 218.017L298.091 207.842Z" fill="white"/>
<path d="M299.063 210.703C299.956 210.08 300.683 210.382 300.795 211.658C300.848 212.254 300.748 212.853 300.503 213.4C300.259 213.946 299.88 214.421 299.4 214.779C298.496 215.393 297.78 215.09 297.678 213.824C297.62 213.228 297.716 212.628 297.959 212.081C298.202 211.534 298.582 211.059 299.063 210.703V210.703ZM299.309 213.763C299.594 213.57 299.789 213.123 299.73 212.385C299.671 211.647 299.418 211.497 299.133 211.701C298.946 211.874 298.808 212.094 298.733 212.338C298.657 212.581 298.647 212.841 298.703 213.089C298.762 213.827 299.024 213.967 299.309 213.763" fill="white"/>
<path d="M179.444 63.4999L152.067 82.26C151.257 82.8228 150.607 83.5874 150.182 84.4784C149.757 85.3693 149.573 86.3557 149.646 87.34L151.326 108.273C151.428 109.246 151.786 110.176 152.364 110.967C152.941 111.757 153.718 112.381 154.614 112.775C155.511 113.168 156.496 113.318 157.469 113.208C158.442 113.098 159.368 112.733 160.154 112.149L164.909 108.898L165.416 109.59L165.492 109.654C166.353 110.137 167.86 110.788 168.203 110.931C168.28 110.948 168.36 110.934 168.428 110.893C168.496 110.853 168.545 110.787 168.566 110.711L169.983 105.361L187.454 93.4251C188.272 92.8661 188.927 92.1008 189.354 91.2068C189.781 90.3128 189.964 89.3218 189.884 88.3344L188.205 67.4017C187.938 63.3299 181.84 61.853 179.444 63.4999Z" fill="#5982C8"/>
<path opacity="0.2" d="M165.412 109.54L165.488 109.604C166.349 110.087 167.856 110.738 168.199 110.881C168.161 110.876 168.125 110.862 168.092 110.843C168.06 110.823 168.031 110.797 168.009 110.766L166.052 108.014L166.395 107.786L164.902 108.808L165.412 109.54Z" fill="white"/>
<path opacity="0.4" d="M155.98 87.2631C156.28 86.507 156.739 85.8237 157.324 85.2591V85.2591C157.522 85.0668 157.736 84.8918 157.964 84.7362L185.331 65.9769C185.602 65.7918 185.916 65.6809 186.242 65.6554C186.569 65.6298 186.897 65.6905 187.192 65.8314C187.488 65.9722 187.742 66.1882 187.928 66.4579C188.114 66.7275 188.225 67.0413 188.252 67.3678C187.928 63.3308 181.791 61.867 179.435 63.5007L152.057 82.2608C151.225 82.8344 150.564 83.6223 150.144 84.5412L155.98 87.2631Z" fill="white"/>
<path opacity="0.2" d="M157.221 110.729L155.541 89.7963C155.525 89.5727 155.523 89.3482 155.538 89.1244C155.575 88.4735 155.724 87.8339 155.978 87.2332L150.151 84.5105C149.743 85.384 149.568 86.3487 149.644 87.3101L151.323 108.243C151.426 109.217 151.784 110.146 152.361 110.937C152.939 111.727 153.715 112.351 154.612 112.745C155.508 113.139 156.493 113.288 157.466 113.178C158.439 113.068 159.366 112.703 160.152 112.119C159.881 112.303 159.566 112.414 159.239 112.439C158.912 112.465 158.585 112.404 158.288 112.263C157.992 112.123 157.738 111.907 157.551 111.638C157.363 111.369 157.25 111.056 157.221 110.729V110.729Z" fill="white"/>
<path d="M181.761 73.8678C181.918 73.7361 182.105 73.6473 182.307 73.61C182.508 73.5728 182.715 73.5884 182.908 73.6554C183.585 73.9722 183.681 75.1684 183.122 76.3268L172.352 99.001C172.113 99.5187 171.749 99.9687 171.293 100.31C171.136 100.444 170.946 100.534 170.743 100.571C170.54 100.608 170.331 100.592 170.136 100.523L164.383 97.8348C163.715 97.5171 163.61 96.3318 164.169 95.1733C164.398 94.6503 164.759 94.1959 165.217 93.8553C165.375 93.7234 165.565 93.6346 165.767 93.5972C165.97 93.5599 166.179 93.5753 166.374 93.6421L170.909 95.7761L180.693 75.1775C180.934 74.6584 181.301 74.2081 181.761 73.8678V73.8678Z" fill="white"/>
<path d="M267.375 37.6031C274.53 42.6828 282.128 47.1094 290.076 50.8296C291.619 51.5585 293.201 52.2742 294.751 52.9624L295.261 53.1924C299.736 55.3212 302.031 58.6684 301.003 62.232C300.614 63.5396 300.567 64.9248 300.864 66.256C301.577 69.389 304.172 72.1001 308.24 74.0309L302.788 77.8493C300.829 79.0356 298.621 79.7487 296.339 79.9319C294.056 80.1151 291.763 79.7633 289.64 78.9044C292.592 77.6647 295.394 76.0936 297.992 74.2213C297.444 74.5161 296.875 74.8025 296.306 75.0889C294.162 76.0738 291.838 76.6067 289.479 76.6545C287.12 76.7022 284.777 76.2639 282.594 75.3667C282.407 75.2814 282.229 75.1853 282.06 75.0885C285.954 73.8516 289.741 72.303 293.386 70.4577C287.663 73.1441 280.047 73.1233 275.041 70.7461C274.551 70.5195 274.077 70.2591 273.624 69.967C272.568 69.3093 271.698 68.717 271.187 68.3567C276.344 68.3135 281.485 67.7632 286.535 66.7137L286.335 66.7297C280.126 67.2481 273.885 66.2112 268.176 63.7127C264.39 61.9098 261.562 59.4281 260.202 56.4774L260.016 56.0409C267.398 58.9468 275.169 60.7438 283.077 61.3733C277.438 60.0991 271.924 58.3258 266.6 56.0743C266.372 55.9856 266.143 55.8836 265.913 55.7683C260.56 53.1882 258.502 48.9292 260.688 44.7811C263.87 46.8688 267.191 48.7374 270.627 50.3739C275.227 52.5272 279.97 54.3623 284.822 55.866C283.399 55.2679 282.006 54.6574 280.66 54.013C275.624 51.6519 270.865 48.7399 266.47 45.3303C263.623 43.1009 263.997 39.8907 267.375 37.6031Z" fill="#5982C8"/>
<g opacity="0.2">
<path opacity="0.2" d="M267.375 37.6031C274.53 42.6828 282.128 47.1094 290.076 50.8296C291.619 51.5585 293.201 52.2742 294.751 52.9624L295.261 53.1924C299.736 55.3212 302.031 58.6684 301.003 62.232C300.614 63.5396 300.567 64.9248 300.864 66.256C301.577 69.389 304.172 72.1001 308.24 74.0309L302.788 77.8493C300.829 79.0356 298.621 79.7487 296.339 79.9319C294.056 80.1151 291.763 79.7633 289.64 78.9044C292.592 77.6647 295.394 76.0936 297.992 74.2213C297.444 74.5161 296.875 74.8025 296.306 75.0889C294.162 76.0738 291.838 76.6067 289.479 76.6545C287.12 76.7022 284.777 76.2639 282.594 75.3667C282.407 75.2814 282.229 75.1853 282.06 75.0885C285.954 73.8516 289.741 72.303 293.386 70.4577C287.663 73.1441 280.047 73.1233 275.041 70.7461C274.551 70.5195 274.077 70.2591 273.624 69.967C272.568 69.3093 271.698 68.717 271.187 68.3567C276.344 68.3135 281.485 67.7632 286.535 66.7137L286.335 66.7297C280.126 67.2481 273.885 66.2112 268.176 63.7127C264.39 61.9098 261.562 59.4281 260.202 56.4774L260.016 56.0409C267.398 58.9468 275.169 60.7438 283.077 61.3733C277.438 60.0991 271.924 58.3258 266.6 56.0743C266.372 55.9856 266.143 55.8836 265.913 55.7683C260.56 53.1882 258.502 48.9292 260.688 44.7811C263.87 46.8688 267.191 48.7374 270.627 50.3739C275.227 52.5272 279.97 54.3623 284.822 55.866C283.399 55.2679 282.006 54.6574 280.66 54.013C275.624 51.6519 270.865 48.7399 266.47 45.3303C263.623 43.1009 263.997 39.8907 267.375 37.6031Z" fill="black"/>
</g>
<g opacity="0.4">
<path opacity="0.4" d="M267.375 37.6031C274.53 42.6828 282.128 47.1094 290.076 50.8296C291.619 51.5585 293.201 52.2742 294.751 52.9624L295.261 53.1924C299.736 55.3212 302.031 58.6684 301.003 62.232C300.614 63.5396 300.567 64.9248 300.864 66.256C301.577 69.389 304.172 72.1001 308.24 74.0309L302.788 77.8493C300.829 79.0356 298.621 79.7487 296.339 79.9319C294.056 80.1151 291.763 79.7633 289.64 78.9044C292.592 77.6647 295.394 76.0936 297.992 74.2213C297.444 74.5161 296.875 74.8025 296.306 75.0889C294.162 76.0738 291.838 76.6067 289.479 76.6545C287.12 76.7022 284.777 76.2639 282.594 75.3667C282.407 75.2814 282.229 75.1853 282.06 75.0885C285.954 73.8516 289.741 72.303 293.386 70.4577C287.663 73.1441 280.047 73.1233 275.041 70.7461C274.551 70.5195 274.077 70.2591 273.624 69.967C272.568 69.3093 271.698 68.717 271.187 68.3567C276.344 68.3135 281.485 67.7632 286.535 66.7137L286.335 66.7297C280.126 67.2481 273.885 66.2112 268.176 63.7127C264.39 61.9098 261.562 59.4281 260.202 56.4774L260.016 56.0409C267.398 58.9468 275.169 60.7438 283.077 61.3733C277.438 60.0991 271.924 58.3258 266.6 56.0743C266.372 55.9856 266.143 55.8836 265.913 55.7683C260.56 53.1882 258.502 48.9292 260.688 44.7811C263.87 46.8688 267.191 48.7374 270.627 50.3739C275.227 52.5272 279.97 54.3623 284.822 55.866C283.399 55.2679 282.006 54.6574 280.66 54.013C275.624 51.6519 270.865 48.7399 266.47 45.3303C263.623 43.1009 263.997 39.8907 267.375 37.6031Z" fill="white"/>
</g>
<path d="M312.869 65.2124L312.736 63.5577C312.71 63.1855 312.781 62.8129 312.945 62.4775C313.108 62.142 313.357 61.8556 313.666 61.6471L327.782 51.8968C327.934 51.7909 328.111 51.7269 328.295 51.7115C328.48 51.6961 328.665 51.7297 328.832 51.809C328.999 51.8883 329.143 52.0103 329.248 52.1629C329.353 52.3154 329.415 52.4929 329.429 52.6775L332.251 87.8344L296.053 112.81L293.413 79.9158L311.959 67.1213C312.265 66.9113 312.511 66.6243 312.67 66.2891C312.83 65.9539 312.899 65.5825 312.869 65.2124V65.2124Z" fill="#455A64"/>
<path opacity="0.2" d="M312.869 65.2124L312.736 63.5577C312.71 63.1855 312.781 62.8129 312.945 62.4775C313.108 62.142 313.357 61.8556 313.666 61.6471L327.782 51.8968C327.934 51.7909 328.111 51.7269 328.295 51.7115C328.48 51.6961 328.665 51.7297 328.832 51.809C328.999 51.8883 329.143 52.0103 329.248 52.1629C329.353 52.3154 329.415 52.4929 329.429 52.6775L332.251 87.8344L296.053 112.81L293.413 79.9158L311.959 67.1213C312.265 66.9113 312.511 66.6243 312.67 66.2891C312.83 65.9539 312.899 65.5825 312.869 65.2124V65.2124Z" fill="black"/>
<path opacity="0.1" d="M312.869 65.2124L312.736 63.5577C312.71 63.1855 312.781 62.8129 312.945 62.4775C313.108 62.142 313.357 61.8556 313.666 61.6471L327.782 51.8968C327.934 51.7909 328.111 51.7269 328.295 51.7115C328.48 51.6961 328.665 51.7297 328.832 51.809C328.999 51.8883 329.143 52.0103 329.248 52.1629C329.353 52.3154 329.415 52.4929 329.429 52.6775L332.251 87.8344L296.053 112.81L293.413 79.9158L311.959 67.1213C312.265 66.9113 312.511 66.6243 312.67 66.2891C312.83 65.9539 312.899 65.5825 312.869 65.2124V65.2124Z" fill="white"/>
<path d="M296.094 113.318L296.414 82.0626L332.571 56.5687L332.25 87.8245L296.094 113.318Z" fill="#455A64"/>
<path opacity="0.6" d="M296.094 113.318L296.414 82.0626L332.571 56.5687L332.25 87.8245L296.094 113.318Z" fill="white"/>
<path d="M332.25 87.8245L335.516 57.8873L299.276 82.475L296.051 112.79L332.25 87.8245Z" fill="#455A64"/>
<path opacity="0.2" d="M332.25 87.8245L335.516 57.8873L299.276 82.475L296.051 112.79L332.25 87.8245Z" fill="black"/>
<path opacity="0.2" d="M332.25 87.8245L335.516 57.8873L299.276 82.475L296.051 112.79L332.25 87.8245Z" fill="white"/>
<path d="M391.713 96.606C388.362 98.9817 382.939 99.788 378.605 98.6611C372.59 97.0547 366.729 94.92 361.089 92.2819C359.732 91.6283 358.415 90.9582 357.135 90.2717C360.956 92.9246 364.989 95.2585 369.192 97.2496C372.916 99.0119 376.754 100.521 380.68 101.765C373.822 103.81 366.119 103.455 360.758 100.906L360.109 100.577C355.734 98.3168 351.652 95.5277 347.956 92.2724C351.349 97.3391 355.978 101.456 361.406 104.235L360.622 104.217C355.838 104.096 351.126 103.028 346.757 101.077C341.896 98.7679 338.694 95.3632 338.185 91.4012L338.176 91.2816C337.322 94.2119 337.346 97.3278 338.243 100.245C337.523 100.022 336.358 99.6338 335.027 99.1788C334.484 98.9878 333.951 98.7694 333.43 98.5244C328.423 96.1473 326.975 91.8494 330.414 88.1926C328.172 90.2942 326.263 92.7239 324.752 95.3986C324.536 95.3165 324.324 95.223 324.117 95.1184C320.321 93.3163 319.368 90.0622 322.029 87.3406C322.399 86.9597 322.782 86.598 323.185 86.2446C320.769 87.7883 318.588 89.6731 316.711 91.8404C312.964 90.0243 312.699 86.5945 316.1 84.2248L321.583 80.4141C326.203 82.4648 331.24 83.3975 336.288 83.1365C338.583 83.0552 340.866 82.778 343.114 82.3078C348.65 81.08 354.433 81.6269 359.641 83.8707C359.808 83.9476 359.975 84.0245 360.132 84.1122C361.618 84.8758 363.126 85.6209 364.656 86.3475C373.396 90.4608 382.442 93.8905 391.713 96.606V96.606Z" fill="#5982C8"/>
<g opacity="0.2">
<path opacity="0.2" d="M391.713 96.606C388.362 98.9817 382.939 99.788 378.605 98.6611C372.59 97.0547 366.729 94.92 361.089 92.2819C359.732 91.6283 358.415 90.9582 357.135 90.2717C360.956 92.9246 364.989 95.2585 369.192 97.2496C372.916 99.0119 376.754 100.521 380.68 101.765C373.822 103.81 366.119 103.455 360.758 100.906L360.109 100.577C355.734 98.3168 351.652 95.5277 347.956 92.2724C351.349 97.3391 355.978 101.456 361.406 104.235L360.622 104.217C355.838 104.096 351.126 103.028 346.757 101.077C341.896 98.7679 338.694 95.3632 338.185 91.4012L338.176 91.2816C337.322 94.2119 337.346 97.3278 338.243 100.245C337.523 100.022 336.358 99.6338 335.027 99.1788C334.484 98.9878 333.951 98.7694 333.43 98.5244C328.423 96.1473 326.975 91.8494 330.414 88.1926C328.172 90.2942 326.263 92.7239 324.752 95.3986C324.536 95.3165 324.324 95.223 324.117 95.1184C320.321 93.3163 319.368 90.0622 322.029 87.3406C322.399 86.9597 322.782 86.598 323.185 86.2446C320.769 87.7883 318.588 89.6731 316.711 91.8404C312.964 90.0243 312.699 86.5945 316.1 84.2248L321.583 80.4141C326.203 82.4648 331.24 83.3975 336.288 83.1365C338.583 83.0552 340.866 82.778 343.114 82.3078C348.65 81.08 354.433 81.6269 359.641 83.8707C359.808 83.9476 359.975 84.0245 360.132 84.1122C361.618 84.8758 363.126 85.6209 364.656 86.3475C373.396 90.4608 382.442 93.8905 391.713 96.606V96.606Z" fill="black"/>
</g>
<g opacity="0.4">
<path opacity="0.4" d="M391.713 96.606C388.362 98.9817 382.939 99.788 378.605 98.6611C372.59 97.0547 366.729 94.92 361.089 92.2819C359.732 91.6283 358.415 90.9582 357.135 90.2717C360.956 92.9246 364.989 95.2585 369.192 97.2496C372.916 99.0119 376.754 100.521 380.68 101.765C373.822 103.81 366.119 103.455 360.758 100.906L360.109 100.577C355.734 98.3168 351.652 95.5277 347.956 92.2724C351.349 97.3391 355.978 101.456 361.406 104.235L360.622 104.217C355.838 104.096 351.126 103.028 346.757 101.077C341.896 98.7679 338.694 95.3632 338.185 91.4012L338.176 91.2816C337.322 94.2119 337.346 97.3278 338.243 100.245C337.523 100.022 336.358 99.6338 335.027 99.1788C334.484 98.9878 333.951 98.7694 333.43 98.5244C328.423 96.1473 326.975 91.8494 330.414 88.1926C328.172 90.2942 326.263 92.7239 324.752 95.3986C324.536 95.3165 324.324 95.223 324.117 95.1184C320.321 93.3163 319.368 90.0622 322.029 87.3406C322.399 86.9597 322.782 86.598 323.185 86.2446C320.769 87.7883 318.588 89.6731 316.711 91.8404C312.964 90.0243 312.699 86.5945 316.1 84.2248L321.583 80.4141C326.203 82.4648 331.24 83.3975 336.288 83.1365C338.583 83.0552 340.866 82.778 343.114 82.3078C348.65 81.08 354.433 81.6269 359.641 83.8707C359.808 83.9476 359.975 84.0245 360.132 84.1122C361.618 84.8758 363.126 85.6209 364.656 86.3475C373.396 90.4608 382.442 93.8905 391.713 96.606V96.606Z" fill="white"/>
</g>
<path d="M290.012 101.547C289.839 101.561 289.666 101.53 289.509 101.456C289.351 101.383 289.216 101.269 289.116 101.128C289.041 101.02 288.987 100.898 288.959 100.77C288.931 100.641 288.928 100.508 288.951 100.379C288.974 100.249 289.023 100.125 289.094 100.015C289.165 99.9039 289.257 99.8082 289.365 99.7332L291 98.5988C291.216 98.4791 291.47 98.4441 291.711 98.5005C291.952 98.5568 292.163 98.7006 292.305 98.904C292.446 99.1074 292.506 99.3559 292.475 99.6014C292.443 99.847 292.322 100.072 292.134 100.233L290.5 101.368C290.357 101.472 290.188 101.534 290.012 101.547V101.547Z" fill="#E0E0E0"/>
<path d="M224.579 230.013C224.315 230.034 224.053 229.95 223.851 229.778C223.649 229.606 223.523 229.361 223.502 229.096C223.393 227.731 223.344 226.37 223.294 225C223.283 224.735 223.378 224.476 223.558 224.281C223.738 224.086 223.989 223.97 224.254 223.96C224.519 223.949 224.778 224.044 224.973 224.224C225.168 224.404 225.283 224.654 225.294 224.92C225.342 226.27 225.421 227.628 225.499 228.976C225.509 229.234 225.419 229.487 225.248 229.68C225.076 229.873 224.837 229.993 224.579 230.013V230.013ZM224.262 219.816L224.173 219.823C223.908 219.819 223.655 219.71 223.47 219.519C223.286 219.329 223.184 219.073 223.188 218.808C223.196 217.403 223.235 216.016 223.299 214.686C223.305 214.554 223.338 214.424 223.395 214.305C223.451 214.185 223.531 214.078 223.629 213.989C223.727 213.9 223.842 213.831 223.967 213.786C224.091 213.742 224.223 213.722 224.356 213.729C224.488 213.735 224.618 213.768 224.737 213.824C224.857 213.881 224.964 213.961 225.053 214.059C225.142 214.157 225.211 214.272 225.256 214.396C225.3 214.521 225.32 214.653 225.313 214.786C225.247 216.085 225.206 217.443 225.195 218.808C225.197 219.063 225.102 219.31 224.929 219.497C224.755 219.685 224.517 219.798 224.262 219.816ZM224.92 209.631C224.851 209.646 224.781 209.651 224.71 209.647C224.449 209.613 224.211 209.476 224.05 209.268C223.888 209.059 223.816 208.795 223.848 208.533C224.038 207.143 224.259 205.771 224.525 204.466C224.545 204.331 224.592 204.202 224.663 204.087C224.734 203.971 224.828 203.871 224.939 203.793C225.05 203.715 225.176 203.66 225.309 203.633C225.442 203.605 225.579 203.604 225.712 203.631C225.845 203.658 225.971 203.711 226.083 203.789C226.195 203.866 226.29 203.965 226.362 204.08C226.434 204.195 226.482 204.323 226.503 204.458C226.524 204.592 226.517 204.729 226.483 204.86C226.235 206.144 226.011 207.476 225.798 208.828C225.757 209.038 225.65 209.229 225.491 209.374C225.333 209.519 225.133 209.608 224.92 209.631ZM227.129 199.662C227 199.674 226.869 199.66 226.745 199.622C226.493 199.542 226.283 199.366 226.16 199.131C226.038 198.897 226.014 198.623 226.093 198.371C226.517 197.032 226.993 195.71 227.503 194.445C227.605 194.199 227.8 194.003 228.045 193.9C228.291 193.798 228.567 193.797 228.814 193.899C229.06 194 229.256 194.195 229.358 194.441C229.461 194.686 229.462 194.963 229.36 195.209C228.865 196.413 228.405 197.683 228.007 198.969C227.946 199.167 227.825 199.342 227.661 199.468C227.497 199.595 227.297 199.667 227.09 199.675L227.129 199.662ZM231.214 190.305C231.011 190.321 230.807 190.274 230.631 190.171C230.403 190.038 230.236 189.819 230.169 189.563C230.101 189.307 230.138 189.035 230.271 188.806C230.977 187.6 231.747 186.433 232.579 185.31C232.737 185.096 232.974 184.954 233.237 184.915C233.5 184.876 233.768 184.944 233.982 185.102C234.195 185.26 234.337 185.497 234.376 185.76C234.415 186.023 234.348 186.291 234.189 186.505C233.399 187.569 232.667 188.676 231.998 189.821C231.917 189.971 231.8 190.099 231.656 190.191C231.513 190.284 231.348 190.338 231.177 190.348L231.214 190.305ZM237.483 182.288C237.278 182.306 237.073 182.262 236.895 182.159C236.717 182.057 236.575 181.903 236.487 181.717C236.4 181.531 236.372 181.323 236.407 181.121C236.443 180.918 236.539 180.732 236.684 180.586C237.61 179.619 238.627 178.665 239.614 177.713C239.706 177.612 239.817 177.531 239.942 177.475C240.066 177.419 240.201 177.388 240.337 177.386C240.474 177.384 240.609 177.41 240.736 177.462C240.862 177.515 240.976 177.592 241.071 177.69C241.166 177.788 241.24 177.905 241.288 178.033C241.337 178.16 241.358 178.297 241.352 178.433C241.345 178.569 241.311 178.703 241.251 178.826C241.191 178.948 241.106 179.058 241.003 179.146C240.075 180.084 239.057 181.028 238.111 181.987C237.942 182.183 237.704 182.307 237.446 182.331L237.483 182.288ZM244.721 175.096C244.581 175.107 244.442 175.088 244.31 175.042C244.178 174.995 244.058 174.922 243.957 174.826C243.763 174.646 243.649 174.396 243.639 174.132C243.629 173.868 243.724 173.61 243.904 173.416C244.807 172.448 245.656 171.432 246.448 170.373C246.524 170.262 246.622 170.168 246.735 170.097C246.848 170.025 246.974 169.976 247.106 169.954C247.238 169.932 247.373 169.936 247.504 169.968C247.634 169.999 247.757 170.056 247.864 170.135C247.972 170.214 248.063 170.315 248.131 170.43C248.2 170.545 248.244 170.672 248.262 170.805C248.28 170.938 248.272 171.073 248.237 171.202C248.202 171.331 248.141 171.452 248.058 171.558C247.224 172.68 246.329 173.757 245.378 174.782C245.292 174.885 245.186 174.97 245.067 175.031C244.948 175.092 244.818 175.129 244.684 175.139L244.721 175.096ZM250.261 166.626C250.12 166.636 249.978 166.617 249.845 166.569C249.72 166.524 249.606 166.456 249.508 166.367C249.41 166.279 249.331 166.171 249.274 166.052C249.218 165.932 249.186 165.803 249.18 165.671C249.174 165.539 249.195 165.407 249.24 165.283C249.364 164.952 249.468 164.623 249.569 164.253C249.827 163.355 250.012 162.438 250.121 161.51C250.138 161.377 250.18 161.249 250.246 161.132C250.312 161.015 250.4 160.913 250.506 160.83C250.611 160.748 250.732 160.687 250.862 160.651C250.991 160.615 251.126 160.605 251.259 160.622C251.392 160.638 251.52 160.68 251.637 160.746C251.754 160.812 251.856 160.901 251.939 161.006C252.021 161.112 252.082 161.233 252.118 161.362C252.154 161.491 252.164 161.626 252.148 161.759C252.021 162.793 251.815 163.816 251.53 164.818C251.42 165.198 251.3 165.569 251.159 165.942C251.099 166.145 250.976 166.324 250.808 166.453C250.64 166.582 250.435 166.654 250.223 166.659L250.261 166.626ZM251.355 156.506C251.09 156.527 250.828 156.442 250.627 156.27C250.425 156.098 250.299 155.853 250.278 155.589L250.178 153.59C250.121 152.883 250.064 152.175 250.078 151.472C250.067 151.206 250.163 150.948 250.343 150.753C250.523 150.558 250.773 150.442 251.038 150.432C251.303 150.421 251.562 150.516 251.757 150.696C251.952 150.876 252.067 151.126 252.078 151.391C252.134 152.089 252.14 152.791 252.176 153.49L252.276 155.489C252.289 155.624 252.273 155.76 252.231 155.889C252.189 156.018 252.122 156.137 252.032 156.239C251.943 156.341 251.834 156.423 251.711 156.482C251.589 156.54 251.456 156.573 251.321 156.579L251.355 156.506ZM251.33 146.315L251.14 146.33C250.877 146.3 250.637 146.167 250.472 145.961C250.307 145.754 250.23 145.49 250.259 145.227C250.414 143.832 250.658 142.449 250.99 141.085C251.017 140.954 251.069 140.828 251.145 140.717C251.221 140.606 251.319 140.512 251.432 140.439C251.545 140.367 251.672 140.318 251.805 140.296C251.937 140.274 252.073 140.278 252.204 140.31C252.335 140.341 252.458 140.398 252.566 140.478C252.674 140.558 252.765 140.659 252.833 140.775C252.901 140.891 252.945 141.02 252.962 141.153C252.98 141.286 252.97 141.422 252.934 141.551C252.626 142.836 252.396 144.137 252.243 145.449C252.228 145.695 252.124 145.927 251.949 146.1C251.774 146.273 251.541 146.376 251.295 146.388L251.33 146.315ZM253.962 136.493C253.803 136.51 253.642 136.485 253.495 136.42C253.373 136.369 253.263 136.295 253.17 136.202C253.078 136.108 253.004 135.998 252.954 135.876C252.904 135.754 252.879 135.624 252.88 135.492C252.881 135.36 252.907 135.23 252.958 135.109C253.489 133.852 254.11 132.589 254.784 131.351C254.91 131.119 255.124 130.947 255.377 130.872C255.631 130.797 255.903 130.826 256.136 130.951C256.368 131.078 256.54 131.292 256.615 131.545C256.689 131.798 256.661 132.071 256.535 132.304C255.888 133.489 255.312 134.689 254.817 135.893C254.752 136.08 254.633 136.245 254.475 136.365C254.317 136.485 254.126 136.555 253.928 136.566L253.962 136.493ZM259.011 127.651C258.774 127.67 258.537 127.603 258.344 127.463C258.238 127.386 258.148 127.289 258.079 127.177C258.01 127.065 257.964 126.941 257.943 126.811C257.923 126.682 257.928 126.549 257.958 126.421C257.989 126.294 258.044 126.173 258.122 126.067C258.919 125 259.782 123.877 260.678 122.792C260.849 122.588 261.094 122.46 261.36 122.437C261.625 122.414 261.888 122.497 262.092 122.668C262.296 122.839 262.424 123.085 262.447 123.35C262.47 123.615 262.387 123.879 262.216 124.083C261.349 125.156 260.512 126.226 259.741 127.241C259.66 127.376 259.549 127.49 259.416 127.574C259.284 127.657 259.133 127.709 258.977 127.724L259.011 127.651ZM265.685 119.932C265.481 119.948 265.277 119.902 265.101 119.799C264.924 119.696 264.784 119.541 264.698 119.356C264.612 119.17 264.585 118.963 264.62 118.762C264.656 118.56 264.752 118.375 264.896 118.23C265.824 117.283 266.87 116.326 267.91 115.4C268.109 115.236 268.363 115.156 268.62 115.176C268.877 115.196 269.116 115.314 269.288 115.506C269.46 115.698 269.551 115.948 269.543 116.206C269.534 116.463 269.427 116.708 269.243 116.888C268.232 117.792 267.243 118.724 266.305 119.652C266.14 119.849 265.906 119.976 265.651 120.005L265.685 119.932ZM273.363 113.226C273.148 113.243 272.934 113.19 272.751 113.075C272.569 112.959 272.429 112.788 272.352 112.587C272.275 112.385 272.265 112.165 272.324 111.957C272.382 111.75 272.507 111.567 272.678 111.436C273.745 110.607 274.852 109.776 275.981 108.973C276.086 108.876 276.211 108.803 276.346 108.758C276.482 108.713 276.626 108.697 276.768 108.713C276.91 108.728 277.047 108.773 277.17 108.846C277.293 108.919 277.399 109.017 277.481 109.135C277.563 109.252 277.619 109.385 277.645 109.526C277.671 109.666 277.666 109.811 277.631 109.95C277.597 110.088 277.533 110.218 277.443 110.33C277.354 110.442 277.242 110.533 277.115 110.598C276.015 111.388 274.916 112.199 273.868 113.015C273.722 113.164 273.534 113.263 273.329 113.299L273.363 113.226ZM281.665 107.293C281.445 107.313 281.224 107.258 281.038 107.138C280.851 107.019 280.71 106.84 280.636 106.632C280.562 106.423 280.559 106.196 280.628 105.985C280.697 105.775 280.834 105.594 281.017 105.469L284.376 103.193C284.484 103.112 284.607 103.053 284.738 103.021C284.868 102.989 285.005 102.983 285.138 103.004C285.271 103.026 285.398 103.074 285.512 103.146C285.626 103.218 285.725 103.313 285.801 103.424C285.878 103.535 285.931 103.66 285.958 103.792C285.985 103.924 285.985 104.06 285.958 104.193C285.931 104.325 285.877 104.45 285.8 104.561C285.724 104.672 285.625 104.766 285.511 104.838L282.142 107.115C282.004 107.252 281.824 107.34 281.631 107.366L281.665 107.293Z" fill="#E0E0E0"/>
<path d="M225.163 238.162C224.898 238.184 224.637 238.099 224.435 237.927C224.233 237.755 224.107 237.51 224.086 237.246L223.926 235.252C223.905 234.988 223.99 234.726 224.161 234.524C224.333 234.322 224.578 234.197 224.843 234.175C225.107 234.154 225.369 234.239 225.571 234.411C225.773 234.583 225.898 234.828 225.92 235.092L226.08 237.086C226.101 237.35 226.016 237.612 225.844 237.814C225.672 238.016 225.427 238.141 225.163 238.162Z" fill="#E0E0E0"/>
</g>
<defs>
<clipPath id="clip0_1497_106">
<rect width="462.563" height="441.669" fill="white" transform="translate(0 37.0019) rotate(-4.58817)"/>
</clipPath>
</defs>
</svg>
